<svg width="30" height="30" viewBox="0 0 30 30" fill="none" xmlns="http://www.w3.org/2000/svg">
<mask id="mask0_1_676" style="mask-type:alpha" maskUnits="userSpaceOnUse" x="0" y="0" width="30" height="30">
<rect width="30" height="30" fill="#D9D9D9"/>
</mask>
<g mask="url(#mask0_1_676)">
<path d="M6.25 27.4979C5.5625 27.4979 4.97396 27.2531 4.48438 26.7635C3.99479 26.2739 3.75 25.6854 3.75 24.9979V9.99789C3.75 9.31039 3.99479 8.72185 4.48438 8.23227C4.97396 7.74269 5.5625 7.49789 6.25 7.49789H8.75C8.75 5.76873 9.35938 4.29477 10.5781 3.07602C11.7969 1.85727 13.2708 1.24789 15 1.24789C16.7292 1.24789 18.2031 1.85727 19.4219 3.07602C20.6406 4.29477 21.25 5.76873 21.25 7.49789H23.75C24.4375 7.49789 25.026 7.74269 25.5156 8.23227C26.0052 8.72185 26.25 9.31039 26.25 9.99789V24.9979C26.25 25.6854 26.0052 26.2739 25.5156 26.7635C25.026 27.2531 24.4375 27.4979 23.75 27.4979H6.25ZM6.25 24.9979H23.75V9.99789H6.25V24.9979ZM15 17.4979C16.7292 17.4979 18.2031 16.8885 19.4219 15.6698C20.6406 14.451 21.25 12.9771 21.25 11.2479H18.75C18.75 12.2896 18.3854 13.175 17.6562 13.9041C16.9271 14.6333 16.0417 14.9979 15 14.9979C13.9583 14.9979 13.0729 14.6333 12.3438 13.9041C11.6146 13.175 11.25 12.2896 11.25 11.2479H8.75C8.75 12.9771 9.35938 14.451 10.5781 15.6698C11.7969 16.8885 13.2708 17.4979 15 17.4979ZM11.25 7.49789H18.75C18.75 6.45623 18.3854 5.57081 17.6562 4.84164C16.9271 4.11248 16.0417 3.74789 15 3.74789C13.9583 3.74789 13.0729 4.11248 12.3438 4.84164C11.6146 5.57081 11.25 6.45623 11.25 7.49789Z" fill="black"/>
</g>
</svg>
