<svg width="358" height="27" viewBox="0 0 358 27" fill="none" xmlns="http://www.w3.org/2000/svg">
<rect x="0.5" y="0.5" width="41" height="26" rx="3.5" fill="white" stroke="#9B9B9B"/>
<path d="M18.2018 17.7174H15.7339L17.2775 8.17279H19.7453L18.2018 17.7174Z" fill="#9B9B9B"/>
<path d="M27.1482 8.40635C26.6614 8.21323 25.8894 8 24.9347 8C22.4975 8 20.7813 9.29962 20.7708 11.1577C20.7505 12.5286 21.9995 13.29 22.9337 13.7471C23.8885 14.2142 24.2131 14.519 24.2131 14.9354C24.2034 15.5748 23.4415 15.8695 22.731 15.8695C21.7457 15.8695 21.2178 15.7176 20.4154 15.3618L20.0905 15.2093L19.7451 17.3519C20.3239 17.6156 21.3904 17.8496 22.4975 17.8598C25.0871 17.8598 26.7729 16.5803 26.7929 14.6003C26.8027 13.5137 26.1432 12.6812 24.7213 12.0009C23.8581 11.5642 23.3295 11.2697 23.3295 10.8229C23.3397 10.4166 23.7766 10.0006 24.751 10.0006C25.5533 9.9802 26.1428 10.1731 26.5894 10.366L26.8126 10.4674L27.1482 8.40635Z" fill="#9B9B9B"/>
<path d="M30.4284 14.3361C30.6316 13.7877 31.4137 11.6656 31.4137 11.6656C31.4034 11.6859 31.6165 11.1071 31.7384 10.7518L31.9109 11.5742C31.9109 11.5742 32.3782 13.8589 32.4797 14.3361C32.094 14.3361 30.9159 14.3361 30.4284 14.3361ZM33.4747 8.17279H31.5658C30.9771 8.17279 30.5299 8.34526 30.2759 8.96471L26.6101 17.7172H29.1996C29.1996 17.7172 29.626 16.5392 29.7176 16.2855C30.0017 16.2855 32.5207 16.2855 32.8862 16.2855C32.9571 16.6206 33.1807 17.7172 33.1807 17.7172H35.4657L33.4747 8.17279Z" fill="#9B9B9B"/>
<path d="M13.6724 8.17279L11.2555 14.6813L10.9914 13.3613C10.5446 11.8382 9.14321 10.1834 7.57935 9.36053L9.79315 17.7072H12.4029L16.2821 8.17279H13.6724Z" fill="#9B9B9B"/>
<path d="M9.01128 8.17279H5.04062L5 8.36564C8.09736 9.15769 10.1487 11.0669 10.9915 13.3617L10.1283 8.9751C9.98619 8.36551 9.54948 8.1929 9.01128 8.17279Z" fill="#DFDFDF"/>
<rect x="63.7" y="0.5" width="41" height="26" rx="3.5" fill="white" stroke="#9B9B9B"/>
<path d="M76.2035 23.0332V21.7623C76.2035 21.2762 75.9074 20.9578 75.399 20.9578C75.1449 20.9578 74.8685 21.0417 74.6785 21.3181C74.5304 21.0862 74.3182 20.9578 73.9998 20.9578C73.7876 20.9578 73.5754 21.022 73.4076 21.254V20.9998H72.9634V23.0332H73.4076V21.9104C73.4076 21.5501 73.5976 21.3798 73.8937 21.3798C74.1898 21.3798 74.3379 21.5698 74.3379 21.9104V23.0332H74.7821V21.9104C74.7821 21.5501 74.9943 21.3798 75.2682 21.3798C75.5644 21.3798 75.7124 21.5698 75.7124 21.9104V23.0332H76.2035ZM82.7923 20.9998H82.0718V20.3853H81.6276V20.9998H81.2253V21.402H81.6276V22.3348C81.6276 22.8012 81.8176 23.0752 82.3259 23.0752C82.516 23.0752 82.7282 23.011 82.8762 22.9271L82.7479 22.5446C82.6196 22.6285 82.4715 22.6507 82.3654 22.6507C82.1532 22.6507 82.0693 22.5224 82.0693 22.3126V21.402H82.7899V20.9998H82.7923ZM86.563 20.9554C86.3089 20.9554 86.1386 21.0837 86.0325 21.2515V20.9973H85.5883V23.0307H86.0325V21.8857C86.0325 21.5476 86.1805 21.3551 86.4569 21.3551C86.5408 21.3551 86.6469 21.3774 86.7333 21.3971L86.8616 20.9726C86.7728 20.9554 86.6469 20.9554 86.563 20.9554ZM80.865 21.1676C80.6528 21.0195 80.3567 20.9554 80.0384 20.9554C79.53 20.9554 79.1919 21.2095 79.1919 21.6118C79.1919 21.9499 79.4461 22.1424 79.8903 22.204L80.1025 22.2263C80.3345 22.2682 80.4628 22.3324 80.4628 22.4385C80.4628 22.5865 80.2925 22.6927 79.9964 22.6927C79.7003 22.6927 79.4658 22.5865 79.3178 22.4804L79.1056 22.8185C79.3375 22.9888 79.6559 23.0727 79.9742 23.0727C80.5665 23.0727 80.907 22.7963 80.907 22.4163C80.907 22.056 80.6306 21.866 80.2086 21.8018L79.9964 21.7796C79.8064 21.7574 79.6583 21.7154 79.6583 21.5896C79.6583 21.4415 79.8064 21.3576 80.0408 21.3576C80.295 21.3576 80.5492 21.4637 80.6775 21.5279L80.865 21.1676ZM92.683 20.9554C92.4288 20.9554 92.2585 21.0837 92.1524 21.2515V20.9973H91.7082V23.0307H92.1524V21.8857C92.1524 21.5476 92.3005 21.3551 92.5769 21.3551C92.6608 21.3551 92.7669 21.3774 92.8533 21.3971L92.9816 20.9776C92.8952 20.9554 92.7694 20.9554 92.683 20.9554ZM87.0072 22.0165C87.0072 22.631 87.4317 23.0752 88.0881 23.0752C88.3842 23.0752 88.5964 23.011 88.8087 22.8432L88.5964 22.4829C88.4262 22.6112 88.2584 22.6729 88.0659 22.6729C87.7056 22.6729 87.4514 22.4187 87.4514 22.0165C87.4514 21.634 87.7056 21.3798 88.0659 21.3601C88.2559 21.3601 88.4262 21.4242 88.5964 21.5501L88.8087 21.1898C88.5964 21.0195 88.3842 20.9578 88.0881 20.9578C87.4317 20.9554 87.0072 21.402 87.0072 22.0165ZM91.116 22.0165V20.9998H90.6718V21.254C90.5237 21.064 90.3115 20.9578 90.0351 20.9578C89.4626 20.9578 89.0184 21.402 89.0184 22.0165C89.0184 22.631 89.4626 23.0752 90.0351 23.0752C90.3313 23.0752 90.5435 22.969 90.6718 22.779V23.0332H91.116V22.0165ZM89.4848 22.0165C89.4848 21.6562 89.7168 21.3601 90.0993 21.3601C90.4596 21.3601 90.7137 21.6365 90.7137 22.0165C90.7137 22.3768 90.4596 22.6729 90.0993 22.6729C89.7193 22.6507 89.4848 22.3743 89.4848 22.0165ZM84.1693 20.9554C83.5771 20.9554 83.1526 21.3798 83.1526 22.014C83.1526 22.6507 83.5771 23.0727 84.1915 23.0727C84.4877 23.0727 84.7838 22.9888 85.0182 22.7963L84.806 22.478C84.6357 22.6063 84.4235 22.6902 84.2138 22.6902C83.9374 22.6902 83.6634 22.5619 83.5993 22.204H85.1021C85.1021 22.1399 85.1021 22.0979 85.1021 22.0338C85.1219 21.3798 84.7394 20.9554 84.1693 20.9554ZM84.1693 21.3379C84.4457 21.3379 84.6357 21.5081 84.6777 21.824H83.619C83.661 21.5501 83.851 21.3379 84.1693 21.3379ZM95.205 22.0165V20.1953H94.7608V21.254C94.6128 21.064 94.4005 20.9578 94.1241 20.9578C93.5516 20.9578 93.1074 21.402 93.1074 22.0165C93.1074 22.631 93.5516 23.0752 94.1241 23.0752C94.4203 23.0752 94.6325 22.969 94.7608 22.779V23.0332H95.205V22.0165ZM93.5738 22.0165C93.5738 21.6562 93.8058 21.3601 94.1883 21.3601C94.5486 21.3601 94.8028 21.6365 94.8028 22.0165C94.8028 22.3768 94.5486 22.6729 94.1883 22.6729C93.8058 22.6507 93.5738 22.3743 93.5738 22.0165ZM78.7033 22.0165V20.9998H78.2591V21.254C78.1111 21.064 77.8988 20.9578 77.6225 20.9578C77.0499 20.9578 76.6057 21.402 76.6057 22.0165C76.6057 22.631 77.0499 23.0752 77.6225 23.0752C77.9186 23.0752 78.1308 22.969 78.2591 22.779V23.0332H78.7033V22.0165ZM77.0524 22.0165C77.0524 21.6562 77.2844 21.3601 77.6669 21.3601C78.0272 21.3601 78.2813 21.6365 78.2813 22.0165C78.2813 22.3768 78.0272 22.6729 77.6669 22.6729C77.2844 22.6507 77.0524 22.3743 77.0524 22.0165Z" fill="#9B9B9B"/>
<path d="M87.3898 5.55664H80.717V17.5449H87.3898V5.55664Z" fill="#AFAFAF"/>
<path d="M81.1611 11.5511C81.1611 9.11541 82.3061 6.95368 84.0631 5.55695C82.7701 4.54025 81.1389 3.92578 79.3597 3.92578C75.1448 3.92578 71.7344 7.33618 71.7344 11.5511C71.7344 15.7659 75.1448 19.1763 79.3597 19.1763C81.1389 19.1763 82.7701 18.5619 84.0631 17.5452C82.3037 16.1682 81.1611 13.9867 81.1611 11.5511Z" fill="#9B9B9B"/>
<path d="M96.392 11.5512C96.392 15.7661 92.9816 19.1765 88.7667 19.1765C86.9875 19.1765 85.3563 18.562 84.0632 17.5453C85.8425 16.1461 86.9653 13.9868 86.9653 11.5512C86.9653 9.11554 85.8203 6.95381 84.0632 5.55707C85.3539 4.54037 86.985 3.9259 88.7643 3.9259C92.9816 3.9259 96.392 7.35851 96.392 11.5512Z" fill="#C6C6C6"/>
<rect x="126.9" y="0.5" width="41" height="26" rx="3.5" fill="white" stroke="#9B9B9B"/>
<path d="M135.164 9.56152L131.609 17.4287H135.865L136.392 16.1743H137.598L138.126 17.4287H142.81V16.4713L143.228 17.4287H145.651L146.069 16.4511V17.4287H155.811L156.996 16.2069L158.105 17.4287L163.109 17.4388L159.543 13.5171L163.109 9.56152H158.183L157.029 10.7607L155.955 9.56152H145.356L144.446 11.5921L143.515 9.56152H139.268V10.4863L138.795 9.56152H135.164ZM135.987 10.6787H138.062L140.42 16.0134V10.6787H142.693L144.514 14.5037L146.192 10.6787H148.454V16.3239H147.078L147.066 11.9003L145.061 16.3239H143.83L141.813 11.9003V16.3239H138.982L138.446 15.0583H135.546L135.011 16.3228H133.494L135.987 10.6787ZM149.712 10.6787H155.307L157.018 12.527L158.784 10.6787H160.496L157.896 13.516L160.496 16.3206H158.707L156.996 14.4507L155.22 16.3206H149.712V10.6787ZM136.997 11.6338L136.041 13.8883H137.951L136.997 11.6338ZM151.094 11.8475V12.8781H154.146V14.0267H151.094V15.1517H154.517L156.108 13.4946L154.585 11.8465H151.094V11.8475Z" fill="#9B9B9B"/>
<rect x="190.1" y="0.5" width="41" height="26" rx="3.5" fill="white" stroke="#9B9B9B"/>
<path d="M206.534 16.8492V8.11383H209.81C210.482 8.11383 211.045 8.2388 211.502 8.48875C211.958 8.73869 212.304 9.08281 212.538 9.51931C212.771 9.9558 212.889 10.4521 212.889 11.0063C212.889 11.5605 212.771 12.064 212.536 12.4987C212.3 12.9334 211.951 13.2757 211.491 13.5238C211.031 13.772 210.462 13.8969 209.788 13.8969H207.617V12.5965H209.575C209.968 12.5965 210.288 12.5277 210.538 12.3918C210.788 12.256 210.975 12.0676 211.094 11.8286C211.216 11.5895 211.275 11.316 211.275 11.0045C211.275 10.693 211.216 10.4213 211.094 10.1858C210.973 9.95037 210.786 9.76563 210.535 9.63341C210.283 9.5012 209.959 9.43599 209.564 9.43599H208.113V16.851H206.53L206.534 16.8492Z" fill="#9B9B9B"/>
<path d="M215.966 16.9817C215.551 16.9817 215.178 16.9075 214.847 16.7571C214.515 16.6086 214.254 16.3877 214.063 16.0942C213.871 15.8008 213.775 15.4404 213.775 15.0112C213.775 14.6417 213.843 14.3356 213.979 14.0947C214.115 13.8538 214.302 13.66 214.539 13.5151C214.774 13.3702 215.041 13.2597 215.339 13.1837C215.636 13.1076 215.944 13.0533 216.263 13.0189C216.647 12.979 216.959 12.9428 217.198 12.9102C217.437 12.8776 217.611 12.8269 217.721 12.7562C217.832 12.6856 217.886 12.5769 217.886 12.4302V12.4049C217.886 12.0843 217.79 11.8343 217.6 11.6587C217.41 11.483 217.134 11.3942 216.776 11.3942C216.397 11.3942 216.098 11.4775 215.877 11.6424C215.656 11.8072 215.508 12.0028 215.432 12.2274L213.99 12.0227C214.104 11.6242 214.291 11.291 214.553 11.0229C214.814 10.7549 215.135 10.552 215.513 10.418C215.892 10.2822 216.31 10.2151 216.767 10.2151C217.082 10.2151 217.397 10.2514 217.71 10.3256C218.024 10.3999 218.31 10.5212 218.567 10.6897C218.826 10.8581 219.034 11.0881 219.192 11.3779C219.349 11.6677 219.429 12.03 219.429 12.4664V16.8513H217.944V15.9512H217.893C217.799 16.1323 217.669 16.3025 217.498 16.4601C217.33 16.6177 217.118 16.7445 216.863 16.8405C216.607 16.9364 216.31 16.9835 215.97 16.9835L215.966 16.9817ZM216.366 15.8479C216.676 15.8479 216.946 15.7863 217.172 15.6632C217.401 15.54 217.576 15.3752 217.699 15.1705C217.823 14.9659 217.884 14.7431 217.884 14.5004V13.7288C217.835 13.7687 217.754 13.8049 217.64 13.8393C217.525 13.8737 217.395 13.9027 217.254 13.9299C217.111 13.9552 216.971 13.9788 216.832 13.9987C216.692 14.0186 216.571 14.0367 216.47 14.0494C216.24 14.0802 216.033 14.1327 215.85 14.2034C215.667 14.274 215.524 14.3736 215.419 14.5004C215.314 14.6272 215.262 14.7902 215.262 14.9894C215.262 15.2738 215.365 15.4893 215.573 15.6342C215.781 15.7791 216.046 15.8516 216.366 15.8516V15.8479Z" fill="#9B9B9B"/>
<path d="M221.704 19.3069C221.494 19.3069 221.3 19.2906 221.123 19.258C220.945 19.2254 220.804 19.1874 220.699 19.1457L221.058 17.9431C221.282 18.0083 221.483 18.0391 221.659 18.0373C221.835 18.0337 221.99 17.9793 222.126 17.8725C222.262 17.7656 222.376 17.5881 222.47 17.3418L222.602 16.9886L220.226 10.2999H221.864L223.374 15.2481H223.443L224.957 10.2999H226.6L223.975 17.6461C223.852 17.9938 223.691 18.2909 223.488 18.539C223.285 18.7871 223.039 18.9791 222.747 19.1113C222.456 19.2435 222.108 19.3088 221.704 19.3088V19.3069Z" fill="#9B9B9B"/>
<path d="M199.445 17.3166C196.991 17.3166 195.208 15.6684 195.208 13.399C195.208 12.5803 195.458 11.3759 196.648 10.2892L196.672 10.2674L197.931 11.5697C197.916 11.5842 197.896 11.6023 197.871 11.6258C197.306 12.142 197.02 12.7379 197.02 13.399C197.02 14.6596 197.994 15.5054 199.445 15.5054C201.327 15.5054 202.544 14.1923 202.544 12.1583C202.544 10.5355 201.265 8.81124 198.896 8.81124C197.141 8.81124 195.935 10.0555 195.924 10.0682L194.6 8.82936C194.669 8.7551 196.333 7.00006 198.894 7.00006C202.312 7.00006 204.353 9.62265 204.353 12.1583C204.353 15.1957 202.334 17.3166 199.443 17.3166H199.445Z" fill="#9B9B9B"/>
<rect x="253.3" y="0.5" width="41" height="26" rx="3.5" fill="white" stroke="#9B9B9B"/>
<path d="M273.397 13.3941V17.229H272.161V7.74475H275.377C276.161 7.74475 276.902 8.03286 277.481 8.56911C278.058 9.06346 278.347 9.80596 278.347 10.5897C278.347 11.3735 278.059 12.0741 277.481 12.6103C276.903 13.1466 276.202 13.4347 275.377 13.4347L273.397 13.3941ZM273.397 8.89911V12.1985H275.46C275.914 12.1985 276.367 12.0328 276.656 11.7041C277.316 11.086 277.316 10.0548 276.697 9.436L276.656 9.39411C276.326 9.06411 275.914 8.85786 275.46 8.89975H273.397V8.89911Z" fill="#9B9B9B"/>
<path d="M281.192 10.5494C282.099 10.5494 282.8 10.7963 283.336 11.2919C283.872 11.7863 284.119 12.4463 284.119 13.2713V17.2306H282.965V16.3231H282.924C282.43 17.0656 281.728 17.4369 280.904 17.4369C280.203 17.4369 279.584 17.2306 279.089 16.8188C278.636 16.4063 278.347 15.8288 278.347 15.2107C278.347 14.5507 278.594 14.0157 279.089 13.6026C279.584 13.1901 280.284 13.0251 281.11 13.0251C281.853 13.0251 282.43 13.1488 282.883 13.4376V13.1495C282.883 12.737 282.719 12.3251 282.389 12.077C282.059 11.7889 281.646 11.6232 281.193 11.6232C280.492 11.6232 279.956 11.9113 279.584 12.4895L278.512 11.8295C279.171 10.9613 280.038 10.5494 281.192 10.5494ZM279.625 15.25C279.625 15.58 279.789 15.8681 280.038 16.0331C280.326 16.2394 280.656 16.3631 280.986 16.3631C281.48 16.3631 281.976 16.1569 282.346 15.7863C282.759 15.4144 282.964 14.9619 282.964 14.4663C282.594 14.1781 282.057 14.0125 281.356 14.0125C280.862 14.0125 280.449 14.1363 280.119 14.3831C279.789 14.59 279.625 14.8788 279.625 15.25Z" fill="#9B9B9B"/>
<path d="M290.8 10.7549L286.718 20.1148H285.48L287.006 16.8573L284.326 10.7955H285.646L287.583 15.4548H287.624L289.521 10.7955H290.8V10.7549Z" fill="#9B9B9B"/>
<path d="M268.491 12.5696C268.491 12.1977 268.449 11.8271 268.409 11.4558H263.255V13.5589H266.182C266.058 14.2189 265.688 14.837 265.109 15.2083V16.5689H266.883C267.913 15.6208 268.491 14.2183 268.491 12.5696Z" fill="#9B9B9B"/>
<path d="M263.253 17.8885C264.738 17.8885 265.975 17.3942 266.883 16.5685L265.11 15.2079C264.615 15.5379 263.996 15.7442 263.255 15.7442C261.852 15.7442 260.615 14.7961 260.203 13.4761H258.388V14.8786C259.336 16.7342 261.192 17.8885 263.253 17.8885Z" fill="#C8C8C8"/>
<path d="M260.202 13.477C259.955 12.817 259.955 12.0745 260.202 11.3739V9.97144H258.388C257.604 11.4977 257.604 13.312 258.388 14.8789L260.202 13.477Z" fill="#9B9B9B"/>
<path d="M263.253 9.14666C264.037 9.14666 264.779 9.43477 265.356 9.97102L266.924 8.40416C265.934 7.49731 264.614 6.96106 263.294 7.00166C261.232 7.00166 259.336 8.15602 258.429 10.0123L260.243 11.4135C260.614 10.0954 261.851 9.14666 263.253 9.14666Z" fill="#C8C8C8"/>
<rect x="316.5" y="0.5" width="41" height="26" rx="3.5" fill="white" stroke="#9B9B9B"/>
<path d="M327.482 8.5471C327.13 8.95243 326.567 9.27212 326.005 9.22645C325.935 8.6784 326.21 8.0961 326.532 7.73644C326.884 7.3197 327.499 7.02284 327.997 7C328.056 7.57088 327.827 8.13035 327.482 8.5471ZM327.991 9.33492C327.177 9.28925 326.479 9.78592 326.093 9.78592C325.7 9.78592 325.108 9.35775 324.464 9.36917C323.626 9.38059 322.846 9.84301 322.418 10.5794C321.539 12.0523 322.19 14.2331 323.04 15.432C323.456 16.0257 323.954 16.6765 324.61 16.6537C325.231 16.6308 325.477 16.2598 326.228 16.2598C326.983 16.2598 327.2 16.6537 327.857 16.6422C328.536 16.6308 328.964 16.0485 329.38 15.4548C329.855 14.7812 330.048 14.1246 330.06 14.0904C330.048 14.079 328.747 13.5937 328.736 12.1323C328.724 10.9106 329.761 10.3283 329.808 10.294C329.222 9.4491 328.308 9.35775 327.991 9.33492ZM332.697 7.67935V16.5794H334.115V13.5366H336.078C337.871 13.5366 339.131 12.3378 339.131 10.6023C339.131 8.86679 337.895 7.67935 336.125 7.67935H332.697ZM334.115 8.84396H335.75C336.981 8.84396 337.684 9.48335 337.684 10.608C337.684 11.7326 336.981 12.3777 335.744 12.3777H334.115V8.84396ZM341.721 16.648C342.612 16.648 343.438 16.2084 343.814 15.5119H343.843V16.5794H345.155V12.1494C345.155 10.8649 344.101 10.0371 342.477 10.0371C340.971 10.0371 339.858 10.8763 339.817 12.0295H341.094C341.2 11.4814 341.721 11.1218 342.436 11.1218C343.304 11.1218 343.79 11.5157 343.79 12.2407V12.7317L342.02 12.8344C340.374 12.9315 339.483 13.588 339.483 14.7298C339.483 15.883 340.403 16.648 341.721 16.648ZM342.102 15.5918C341.346 15.5918 340.866 15.2379 340.866 14.6955C340.866 14.1361 341.329 13.8107 342.214 13.7593L343.79 13.6622V14.1646C343.79 14.9981 343.063 15.5918 342.102 15.5918ZM346.908 19C348.291 19 348.941 18.4862 349.509 16.9277L352 10.1227H350.558L348.888 15.3806H348.859L347.189 10.1227H345.706L348.109 16.6023L347.98 16.9962C347.763 17.6641 347.412 17.921 346.785 17.921C346.673 17.921 346.456 17.9096 346.368 17.8982V18.9657C346.451 18.9886 346.802 19 346.908 19Z" fill="#9B9B9B"/>
</svg>
