<svg xmlns="http://www.w3.org/2000/svg" xmlns:xlink="http://www.w3.org/1999/xlink" width="418" height="400" viewBox="0 0 418 400"><defs><polygon id="a" points="0 0 418 0 418 400 0 400"/></defs><g fill="none" fill-rule="evenodd"><mask id="b" fill="#fff"><use xlink:href="#a"/></mask><polygon fill="#756B5E" points="0 400 418 400 418 0 0 0" mask="url(#b)"/><polygon fill="#1A1919" points="19.599 380.184 398.223 380.184 398.223 19.816 19.599 19.816"/><path fill="#756B5E" d="M209.061982,194.708899 L209.061982,194.708899 C207.59557,194.708899 205.84797,193.306219 202.237875,189.955541 L201.406404,189.186037 C167.990351,158.175608 143.847464,135.775147 115.683282,107.288329 C103.063067,94.5248536 90.7119473,83.2246484 77.63518,71.2609726 C71.4641553,65.6138996 65.0814834,59.7759651 58.4811174,53.6047806 C58.0487526,53.2018511 57.4107878,52.6080601 56.62467,51.8749101 C51.0160218,46.6640916 39.3421725,35.8213477 38.289984,34.1490385 C38.1297369,33.8945567 37.9694898,33.6733998 37.8304075,33.4795089 C37.4675839,32.9644862 37.2015132,32.591852 37.3678074,32.2495134 C37.5582898,31.8526429 38.2234664,31.6981361 40.3248197,31.5799838 C48.0559859,31.1376701 56.6186229,30.9165133 66.505566,30.9165133 C90.2493472,30.9165133 116.345435,32.1949816 139.369616,33.3250021 C144.839181,33.5916021 150.124312,33.852143 155.149419,34.0823885 C156.153231,34.1308612 156.325572,34.218718 156.573501,34.7882726 C156.612807,34.8821885 156.715607,35.1003158 156.603737,35.3184431 C156.479772,35.578984 156.147184,35.7456091 155.376184,35.9455591 C153.489501,36.439375 151.2279,38.0723001 149.740324,39.4386252 C148.800006,40.3020457 147.738747,41.2836185 146.689582,41.8925572 C146.356994,42.0834185 145.830899,42.1349208 145.27457,42.0349458 C135.962097,40.3777843 124.989707,39.5688957 111.734551,39.5688957 C100.725879,39.5688957 89.5720765,40.1081548 79.7335098,40.586823 C76.9155799,40.7231525 73.4838733,40.7928321 70.1670609,40.8655412 C67.6182251,40.9170435 65.2114952,40.9715753 63.1101418,41.0473139 L62.67173,41.0594321 C62.1516828,41.0715503 61.4320827,41.0897276 61.365565,41.2442344 C61.3564944,41.2775594 61.3171886,41.5017458 62.0972593,42.3560776 C97.983537,81.5553687 137.280356,117.101028 178.890176,154.724955 C187.951696,162.922906 197.318592,171.393515 206.531288,179.803534 C207.359735,180.56092 207.770935,181.23348 208.043053,181.678823 C208.215394,181.9636 208.351453,182.181727 208.457276,182.181727 C208.708229,182.181727 209.4369,181.512198 210.2079,180.803284 C222.546926,169.448547 281.37575,115.501428 281.73555,115.207562 C281.883703,115.092439 282.05302,115.040937 282.261644,115.040937 C283.552691,115.040937 286.004774,117.325214 287.250468,118.667303 C288.000304,119.479221 288.320798,120.051805 288.278469,120.524414 C288.242186,120.975817 287.912621,121.230298 287.58608,121.472662 C287.522586,121.527194 287.450021,121.578696 287.38048,121.639287 C274.838878,132.169988 264.177911,142.703718 252.88805,153.849416 C251.273485,155.442957 249.649849,157.045587 247.995978,158.672453 L245.803919,160.82646 C235.133882,171.329895 223.039762,183.236009 211.541277,193.448608 C210.688642,194.205994 209.94183,194.708899 209.061982,194.708899"/><path fill="#756B5E" d="M160.936455 83.8760007 160.936455 83.8760007C160.65829 83.8760007 160.39222 83.7457302 160.044514 83.4427757 157.683137 81.373596 156.55536 79.4558936 156.691419 77.7502594 156.942372 74.5783251 160.809467 72.0123 165.459656 69.2190589 169.239069 66.9529587 173.946705 64.1294222 175.800129 60.8999265 176.002705 60.5515288 177.106294 60.5454697 177.118388 60.5454697 177.683788 60.5454697 178.001259 60.6817992 178.055682 60.9514288 178.149412 61.4028311 179.358824 62.7994517 180.329377 63.917354 181.81393 65.644195 182.210012 66.1531587 182.161636 66.4500542L182.143495 66.5560883 182.025577 66.6500042C181.251553 67.0953474 178.073823 70.2006317 175.271011 73.0696114 174.826552 73.5270728 174.391164 73.9815046 173.964846 74.4268478 170.155198 78.3834344 166.871645 81.7977324 161.852585 83.6033416 161.758855 83.6396961 161.668149 83.6730211 161.586514 83.7093757 161.356726 83.7972325 161.154149 83.8760007 160.936455 83.8760007M134.426144 105.903827 134.426144 105.903827C134.253803 105.903827 134.084485 105.88565 133.924238 105.864443 132.424567 105.603902 130.546955 103.867972 129.134967 101.456454 128.72679 100.75057 131.172826 96.9333424 134.988521 94.1643377 136.575874 93.0100808 139.738486 90.601592 140.155733 90.1168647 140.210157 90.0593034 140.303886 89.9865943 140.473204 89.9865943 141.619122 89.9865943 145.963935 93.6281081 146.768194 97.8815902 146.828664 98.2057516 146.493052 98.4026721 145.758335 98.8146903 144.908723 99.296388 143.496734 100.093159 141.833793 101.580665 139.744533 103.431718 136.705886 105.903827 134.426144 105.903827"/><path fill="#756B5E" d="M186.947884,127.116706 L186.947884,127.116706 C186.721119,127.116706 186.476213,126.940992 186.098272,126.501708 C180.123777,119.62161 173.112211,113.838207 166.333456,108.248695 C155.869019,99.6205494 145.247358,90.0108306 140.367381,75.8113502 C139.188204,72.3667568 139.85338,65.8804996 140.533675,64.5687063 C140.594145,64.4626722 140.684851,64.3142245 140.842075,64.2657517 C141.809604,63.9809745 142.813416,63.8385858 143.817228,63.8385858 C147.351735,63.8385858 150.260371,65.6744905 150.266418,66.2652519 C150.39643,81.6371665 159.089078,90.3198443 170.091704,101.308006 L171.546022,102.762188 C173.656446,104.867722 176.667882,107.988154 178.847847,110.278491 C180.4352,101.792734 179.126012,95.9214742 177.856129,90.2410761 C177.726117,89.6442556 177.590059,89.0534942 177.46307,88.4597033 C176.752541,85.1726462 176.017823,81.7674369 175.633835,78.4379663 C175.606623,78.2258981 175.781988,78.1168344 176.12667,77.9108253 C176.519729,77.6684617 177.175835,77.2715912 177.919623,76.5384411 C178.678529,75.7871138 179.785141,75.0236683 180.438224,75.0236683 C180.737553,75.0236683 180.873612,75.1781752 180.925012,75.2720911 C181.810906,76.7808048 182.796577,80.0769505 183.159401,82.200662 C183.171495,82.2764006 183.207777,82.4490847 183.271271,82.7217438 C185.823131,93.9462104 187.30466,109.254505 187.447175,125.826119 C187.452813,126.501708 187.392343,126.831928 187.226049,126.998553 C187.15046,127.077322 187.056731,127.116706 186.947884,127.116706"/><path fill="#756B5E" d="M126.704048,93.5038968 L126.704048,93.5038968 C126.395648,93.5038968 126.084225,93.2948581 125.618601,92.7858944 C117.1376,83.4548939 108.910574,75.1902933 99.7311373,66.7681564 C97.6600192,64.8625722 95.5314541,62.9812244 93.2789243,60.9938424 C89.2394882,57.4189786 85.0670168,53.728992 81.1999219,49.881469 C80.7645336,49.448244 80.5014864,49.0998463 80.6194041,48.8120394 C80.7342983,48.5333212 81.0971219,48.5090848 81.4266866,48.5090848 C81.5990278,48.5090848 81.7985808,48.521203 82.016275,48.5272621 C84.2960166,48.6272371 86.6362288,48.6757099 89.2304176,48.6757099 C94.8148775,48.6757099 100.532373,48.4484939 106.059386,48.2364257 C111.737575,48.0122394 117.606247,47.7819939 123.341883,47.7819939 C137.851804,47.7819939 154.40563,49.0544031 167.137715,58.4672014 C167.267727,58.5611173 167.331221,58.7580378 167.331221,59.0519037 C167.325174,59.4911878 167.089339,61.8390857 162.944079,64.7323018 C162.136797,65.3018564 161.553255,65.7926427 161.129961,66.1592178 C160.60689,66.604561 160.34082,66.8287474 160.080796,66.8287474 C159.993114,66.8287474 159.902408,66.7984519 159.832867,66.7408905 C151.406289,60.0062106 139.84431,56.8645717 123.459801,56.8645717 C116.345435,56.8645717 109.297586,57.443215 103.081209,57.9521786 L102.896773,57.9642968 C101.502926,58.07639 100.544467,58.1581877 100.293514,58.2672514 C100.353984,58.3611673 100.511208,58.5277923 100.653314,58.6671514 C100.979855,59.0125196 101.427338,59.4730105 101.859702,60.1485992 C102.500691,61.1362311 106.564315,64.6868586 111.70734,69.1887634 C118.616106,75.2236183 127.215025,82.7399211 133.110909,88.874751 C133.525132,89.3140351 132.893214,90.501617 132.061744,91.295358 C131.203061,92.1163648 128.729814,93.0040217 127.34806,93.3069763 C127.257354,93.3251536 127.187813,93.3615081 127.109202,93.3948331 C126.991284,93.4433058 126.864296,93.5038968 126.704048,93.5038968"/><path fill="#756B5E" d="M203.063299 161.323306C202.440452 161.323306 201.566651 160.82646 200.384451 159.814592 198.153086 157.89083 195.918697 155.951921 193.693379 154.009982 190.564026 151.283391 187.328849 148.465914 184.202519 145.815061L182.554695 144.418441C169.393269 133.248506 155.781337 121.696849 142.371981 109.28177 142.018228 108.95155 141.652381 108.609211 141.879146 108.106307 142.232899 107.294389 143.451381 106.597593 144.987334 105.709936 145.256429 105.555429 145.53157 105.394863 145.818805 105.231268 146.344899 104.922254 146.780288 104.610211 147.134041 104.364818 147.632923 104.010361 147.932253 103.798293 148.183206 103.798293 148.292053 103.798293 148.385782 103.834647 148.458347 103.904327 160.894126 116.467853 171.022951 125.644346 178.569682 131.194474 182.654471 134.193724 186.394578 137.792825 190.013743 141.276802 191.640402 142.846107 193.179379 144.318466 194.718356 145.721145 195.60425 146.530034 196.32385 147.229859 196.904368 147.790325 197.593733 148.465914 198.249839 149.105148 198.494745 149.199064 198.57638 148.868843 198.307286 147.484341 197.944463 145.615111L197.781192 144.772898C196.414556 137.738293 196.133368 129.15256 195.858227 120.857664 195.791709 118.909667 195.731239 116.982875 195.65565 115.098498 194.657885 90.7439807 193.632909 65.5563382 172.069093 50.7509486 171.854422 50.60856 171.654869 50.4389054 171.654869 50.2026009 171.654869 50.0359759 171.748599 49.881469 171.936057 49.7511986 173.490152 48.6575326 176.858364 46.7761847 181.363424 46.9579575 182.318859 46.994312 182.917518 47.1427598 183.718754 47.9122644 205.013476 68.2132497 204.318064 99.2236789 203.643817 129.213151 203.407981 139.686291 203.166099 150.513887 203.925005 160.235699 203.940123 160.435649 203.928028 160.808283 203.686146 161.068824 203.531946 161.235449 203.317275 161.323306 203.063299 161.323306M160.618985 47.8334962C160.540373 47.8334962 160.45269 47.821378 160.34082 47.8001712 159.41562 47.6153689 157.232631 47.3124143 155.914372 47.2184984 153.320183 47.0306666 149.250512 46.1005961 148.954206 45.2129392 148.896759 45.0523733 148.945135 44.8827187 149.084218 44.7585073 155.085925 39.4386252 159.113267 36.2788091 163.198056 34.845834 170.690363 32.2192179 178.167553 30.8892474 185.433095 30.8892474 190.984296 30.8892474 196.287568 31.6799588 201.197781 33.2432044 201.494087 33.3371203 201.859934 33.6037203 201.917381 34.0308862 201.989946 34.6155885 201.469899 35.2729999 200.363287 35.9697954 198.742674 37.0059 197.790262 37.7875228 197.094851 38.3601069 194.851391 40.2081298 194.851391 40.2081298 184.060413 40.4262571L183.074742 40.4504934C175.373811 40.6050003 167.409833 40.7685957 161.513949 47.1882029L161.389985 47.3245325C161.084608 47.6638416 160.930408 47.8334962 160.618985 47.8334962M233.833764 66.6439451C233.226034 66.6439451 219.103126 57.6674013 213.920795 51.8870282 213.706124 51.6567828 213.654724 51.3720055 213.778689 51.1054055 214.325948 49.8693508 218.843102 48.8332462 219.169643 48.8332462 225.074597 49.8754099 229.736881 53.4502738 234.671282 57.2372059L235.103646 57.5734854C235.548105 57.909765 236.183047 58.3248127 236.7938 58.7338014 238.432553 59.8092901 238.877012 60.1425401 238.889268 60.4424651 238.892129 60.5454697 238.852824 60.6333265 238.771188 60.6908879 238.650247 60.7878333 238.260212 61.3180038 237.885294 61.8330266 237.362223 62.5510289 236.715188 63.4386858 236.13467 64.0718608 235.859529 64.3717858 235.536011 64.8050109 235.221564 65.2261177 234.48987 66.2076905 234.163328 66.6166792 233.863999 66.6439451L233.833764 66.6439451M273.928795 75.9810047C273.786689 75.9810047 273.626442 75.9476797 273.438983 75.8749707 267.331453 73.5513091 267.237723 73.2847091 267.8515 70.424818 268.147806 69.0403157 268.595288 66.9529587 268.3655 63.5265426 268.045006 58.709565 265.967841 51.5507487 261.184616 47.2427348 261.060651 47.1245825 261.030416 46.9518984 261.099957 46.7701257 261.284393 46.2914574 262.07051 45.7824938 263.364581 45.7764347 263.539946 45.7764347 264.096276 45.6582824 264.67377 45.534071 265.583852 45.3432097 266.611853 45.1250824 267.1833 45.1250824 267.437276 45.1250824 267.591476 45.1644665 267.691253 45.2614119 274.962842 52.1475692 277.844267 64.4323768 274.684678 75.1478797 274.572807 75.5386911 274.436748 75.9810047 273.928795 75.9810047M270.826653 94.2946082C269.84703 94.2946082 269.0851 94.0280081 268.755535 93.5614581 264.301876 87.4084509 257.722674 83.666962 251.361167 80.046655 250.810885 79.7346118 250.505508 79.3953027 250.393638 78.9832845 250.257579 78.4500844 250.451085 77.7987321 251.016485 76.8686616 252.153332 74.9933729 254.693097 72.0001818 255.55178 72.0001818 255.60318 72.0001818 255.651556 72.0062409 255.690862 72.0244181 261.302534 74.0875387 266.173441 77.8472049 270.887124 81.4856892 271.890936 82.267312 273.042901 83.0762006 274.152536 83.8638825 276.873713 85.787644 277.826125 86.4965577 277.801937 86.9449304 277.659831 89.5806351 276.471584 90.6561238 274.820736 92.1466603 274.370231 92.555649 273.89856 92.9828149 273.390607 93.4917786 272.900795 93.9765059 271.890936 94.2946082 270.826653 94.2946082"/><path fill="#756B5E" d="M231.366563 126.15331 231.36354 126.15331C230.665104 126.15331 230.65301 125.259594 230.598587 122.305787 230.574398 120.763748 230.54114 118.649126 230.402057 115.8165 229.62501 99.662963 228.660504 79.5619277 240.092471 66.7742155 245.682978 60.5272924 248.700461 59.0579628 252.195661 57.3553581 253.538109 56.7040058 254.922886 56.0284171 256.564662 55.0407853 256.821662 54.8862784 257.59871 54.7923625 258.206439 54.7923625 258.93511 54.7923625 259.406781 54.9044557 259.618428 55.1286421 261.184616 56.7706558 261.692569 58.5853537 262.082605 61.3785947L262.103769 61.5209834C262.233781 62.4783198 262.264016 62.6752403 261.656287 62.8933676 256.068803 64.8868086 250.780649 68.7585679 246.768425 73.7997319 240.056188 82.2127801 237.773423 93.388774 239.977577 107.01567 240.028977 107.367098 240.077353 107.654904 240.113636 107.88212 240.122706 107.969977 240.1348 108.039657 240.140847 108.094189 240.158988 108.076011 240.174106 108.063893 240.189224 108.045716 240.449247 107.791234 240.884636 107.367098 241.646565 106.982345 242.84993 106.382495 250.457132 101.177736 255.173839 92.5071762 255.50945 91.8861194 257.54731 90.4198193 258.409016 90.4198193 258.526933 90.4198193 258.62671 90.4440557 258.711369 90.4894988 259.86031 91.128733 260.954828 91.5558989 261.834675 91.8982376 263.125722 92.395083 263.978358 92.7343922 264.177911 93.3736263 264.283734 93.7038468 264.196052 94.08254 263.899746 94.5187945 256.78538 105.270652 245.716237 116.319405 233.534434 124.826369 233.256269 125.02329 233.011364 125.199003 232.793669 125.359569 232.110352 125.856415 231.702175 126.15331 231.366563 126.15331M295.150952 115.716525 295.150952 115.716525C295.075364 115.716525 295.008846 115.704407 294.939305 115.692289 292.925634 115.213621 289.436481 111.690259 286.878574 109.118175 285.83848 108.069952 284.934444 107.164118 284.529291 106.876311 284.40835 106.791484 284.338809 106.661213 284.332762 106.512766 284.314621 106.270402 284.275315 105.625109 287.573986 102.586475 287.809821 102.371377 288.042633 102.14719 288.272422 101.929063 289.424386 100.832368 290.422151 99.8932085 291.271763 99.8932085 291.383634 99.8932085 291.48341 99.9053267 291.583187 99.9356222 294.023176 100.693009 295.589364 102.228988 298.383106 105.107057 299.1662 105.915945 300.106518 107.08232 300.868448 108.021479 301.328024 108.597093 301.811789 109.187855 301.926683 109.28177 302.065765 109.390834 302.213918 109.61502 302.065765 110.036127 301.530601 111.638757 296.822964 115.716525 295.150952 115.716525M197.926321 55.5255126C197.714674 55.5255126 197.149274 55.5255126 195.069085 52.5626169 195.041874 52.5202033 192.36605 48.5454394 193.227756 47.8819689 193.348697 47.788053 193.723615 47.5456893 194.400885 47.094287 196.511309 45.7097847 201.442687 42.4681708 208.841265 37.1846432 216.257984 31.8829384 226.057245 30.7741247 232.975081 30.7741247 236.446094 30.7741247 239.941294 31.0467838 243.369977 31.5981611 243.908166 31.6860179 244.636836 31.8526429 244.712425 32.3434293 244.778942 32.7645361 244.328436 33.2007907 243.300436 33.7279317 242.012412 34.3853431 240.875565 35.0185181 239.768953 35.6335159 238.169506 36.5272318 236.660764 37.366416 234.873858 38.1783342 234.774082 38.2237774 234.619882 38.3146638 234.423352 38.432816 233.416517 39.0114593 231.469363 40.1414798 229.364986 39.9415298 228.911457 39.8991161 228.433739 39.8748798 227.943927 39.8748798 218.66169 39.8748798 204.251546 47.3972416 198.289145 55.3497989 198.198439 55.4679512 198.071451 55.5255126 197.926321 55.5255126"/><path fill="#756B5E" d="M216.454513,164.171078 C215.822595,164.171078 215.43256,163.601524 215.290454,162.471503 C214.740172,157.975658 214.685748,154.140253 215.099972,149.632289 C215.63816,143.82162 214.652489,133.218211 213.935913,125.471662 C213.551924,121.336333 213.22236,117.761469 213.210266,115.964948 C213.149795,98.3663175 213.935913,80.1587482 220.088796,66.1834541 C220.321608,65.6502541 220.639079,64.9171041 221.497761,64.9171041 C221.98455,64.9171041 222.60135,65.1473495 223.426773,65.6502541 C228.727022,68.864602 228.361174,69.6613725 228.243257,69.9219135 C221.301232,84.993903 221.800114,102.104777 222.280856,118.649126 C222.552973,128.046776 222.710197,137.832209 222.014785,145.733264 L221.94222,146.542152 C221.794067,148.175077 221.679173,149.471723 221.836397,149.650466 C222.008738,149.638348 222.761597,148.874902 223.559809,148.062984 C224.028456,147.590375 224.593856,147.02385 225.262056,146.372498 C231.599375,140.22252 238.275329,133.881681 244.736613,127.743822 L244.908954,127.586285 C248.422296,124.241667 251.984014,120.88796 255.554803,117.513046 C276.483678,97.7816152 298.129129,77.3776253 314.244544,57.0342263 C314.519685,56.6797695 314.758544,56.4071103 314.939956,56.1950421 C315.039733,56.0708308 315.151603,55.9466194 315.224168,55.8587626 C315.10625,55.8466444 314.927862,55.8405853 314.74645,55.8284671 C314.48038,55.822408 314.141744,55.8042308 313.724497,55.7799944 C312.890003,55.7163739 312.016203,55.6921376 311.109144,55.6921376 C306.779449,55.6921376 302.226012,56.3677263 297.820729,57.0190786 C293.99294,57.5856036 288.335916,58.3369309 283.422679,58.3369309 C282.331185,58.3369309 281.309232,58.3005764 280.387055,58.2248377 C279.957714,58.1945423 279.177643,58.1369809 278.76342,56.9887831 C278.373384,55.3013262 277.783796,54.1016261 277.212349,52.9413101 C276.940231,52.3838737 276.662066,51.8052305 276.402043,51.1841737 C276.296219,50.9236327 276.184349,50.6630918 276.338549,50.4328463 C276.477631,50.2177486 276.786031,50.1298918 277.405855,50.1238327 C289.599751,50.0299168 329.673618,49.6936372 333.29883,49.5785145 C335.106901,49.5209531 336.062337,49.5088349 336.228631,50.0299168 C336.346549,50.4207282 335.938372,50.87516 334.598948,51.8173487 C326.89197,57.249324 319.09731,64.4323768 311.426614,73.1726159 C305.031848,80.4556437 300.850306,84.4728212 296.006611,89.1292328 C293.503128,91.5377216 290.664034,94.2643127 287.220233,97.7331425 C264.779593,120.348701 241.574001,143.739823 218.081172,163.310687 C217.576243,163.737853 216.986655,164.171078 216.454513,164.171078"/><path fill="#756B5E" d="M305.322107 104.449645 305.322107 104.449645C304.983472 104.449645 304.611578 104.08307 303.916166 103.371127 303.435424 102.8864 302.90026 102.331993 302.301601 101.88665 301.328024 101.14744 300.80193 100.396113 300.732389 99.6508449 300.684012 99.0752312 300.90473 98.5208243 301.382448 97.9936834 316.784309 81.2312073 346.221398 51.1235827 359.88473 41.4320662 358.639035 39.1720252 345.912998 39.0538729 338.242302 38.9811638 335.690443 38.959957 333.489313 38.9417797 331.941265 38.8630115L329.356147 38.7327411C320.231134 38.2783092 310.794697 37.8057001 301.575954 37.8057001 283.670609 37.8057001 260.658522 39.3659161 241.468177 51.568926 241.099306 51.7991714 240.724389 51.9173237 240.316212 51.9173237 239.563353 51.9173237 238.864918 51.5204532 238.127176 51.1054055 237.818776 50.9357509 237.495259 50.7509486 237.174764 50.60856 235.275988 49.7390804 233.077881 48.154628 232.972058 47.3305916 232.947869 47.1669961 233.005316 47.0185484 233.126258 46.9185734 250.281767 32.8705702 272.30516 30.9286315 293.545458 30.9286315 298.966647 30.9286315 304.554131 31.064961 309.957179 31.1952315L311.574767 31.2376451C314.640627 31.3073247 317.646016 31.3436792 320.769322 31.3436792 329.189853 31.3436792 336.440278 31.0831383 343.457891 30.8347156 349.308422 30.6347656 354.832411 30.431786 360.181036 30.431786 367.177484 30.431786 373.106626 30.7741247 378.836216 31.5163633 379.271604 31.5739247 379.697922 31.6678406 379.858169 32.0010906 380.057722 32.4191679 379.779557 33.0068998 379.126475 34.0823885 375.906415 39.3719752 311.574767 98.9449607 305.591201 104.34967 305.515613 104.413291 305.421884 104.449645 305.322107 104.449645M33.2406889 363.097105C32.4061946 363.097105 32.3064181 362.067059 32.140124 359.522241 30.0417942 326.58805 32.2610652 283.001977 33.8847008 251.17357 33.9330773 250.210175 34.0237832 250.04355 34.6224421 249.807245 34.707101 249.77392 34.8250186 249.737566 34.9459598 249.737566 35.3843717 249.737566 35.6050894 250.198057 35.81976 250.955443 36.3398072 252.754993 38.0571722 254.896882 39.499396 256.299561 40.5153021 257.299312 41.4646905 258.238471 42.0905612 259.204896 42.2991848 259.522998 42.3505848 260.019844 42.2447613 260.565162 38.4139487 279.966372 39.6354549 302.760673 40.7148551 322.870797 40.856961 325.558004 40.9355728 328.829914 41.0081375 331.995789 41.0655846 334.410337 41.1169846 336.682496 41.1986199 338.669878 41.2288552 339.475737 41.3225846 339.812017 41.5009729 339.812017 41.8728671 339.812017 42.7496908 339.084926 43.0399497 338.848621 88.1842762 301.606417 129.255908 260.949914 172.731246 217.909159 177.974047 212.719547 183.228942 207.517818 188.495931 202.316088 188.689437 202.128256 188.861778 201.96769 189.015978 201.83136 189.384849 201.489022 189.629755 201.270894 189.635802 201.055797 189.641849 200.689222 188.943414 199.980308 187.794472 198.856347 176.568105 187.862125 119.934365 131.388365 119.459671 130.858195 119.320588 130.697629 119.263141 130.500708 119.281282 130.258345 119.381059 129.010172 121.730342 126.731953 123.106048 125.583756 123.90426 124.917256 124.493848 124.608242 124.968542 124.608242 125.476495 124.608242 125.769778 124.950581 126.029801 125.259594 126.090272 125.323215 126.147719 125.389865 126.20819 125.459544 138.247886 138.389645 150.078959 149.601993 165.269174 163.513667 175.391952 172.784077 188.586637 185.020412 200.81984 197.43549 202.249969 198.886642 203.117722 199.856097 203.105753 201.092151 203.087487 202.50089 201.896216 204.182288 198.700345 207.287572 163.996268 240.997326 140.911616 262.973651 111.072398 289.563973 94.6848657 304.169412 80.8219806 317.581211 64.7700598 333.107632 61.4139415 336.358335 57.982235 339.675687 54.4416813 343.083926 53.4469399 344.044292 51.4060572 346.119531 49.0416567 348.52196 43.2425262 354.411397 36.0344306 361.736839 34.610348 362.539668 33.960289 362.906243 33.5672301 363.097105 33.2406889 363.097105"/><path fill="#756B5E" d="M80.2293687 249.737566 80.2293687 249.737566C80.1265687 249.737566 80.0328393 249.731507 79.9360863 249.725447 76.5981092 249.483084 73.8890263 245.808245 70.9441081 241.388138 68.5524959 237.795097 65.5773423 233.323487 62.1728475 231.566351 61.8372357 231.387608 61.7465298 230.418153 61.8130475 229.966751 61.8735181 229.536555 62.067024 229.412344 62.2182005 229.388108 62.6989418 229.294192 64.1683773 228.145994 65.3536011 227.228041 67.4791427 225.57088 67.9931428 225.277014 68.2047899 225.619353 68.7248371 226.425212 72.5405319 229.891012 74.9744736 232.026842 75.4612619 232.454008 75.9420032 232.872085 76.4166974 233.281074 80.5861453 236.901381 84.184146 240.021813 86.0889699 244.790318 86.1282758 244.884233 86.1645582 244.969061 86.197817 245.044799 86.4276053 245.577999 86.5364523 245.90822 85.9196522 246.541395 83.8545812 248.659047 81.9406867 249.737566 80.2293687 249.737566M104.695774 275.973431C103.824997 275.967372 100.242114 274.061788 97.2578897 270.356653 96.0847601 268.902471 93.5087125 265.848689 92.9916889 265.44576 92.900983 265.37608 92.8012065 265.227632 92.8707477 264.948914 93.1428654 263.84313 96.6229484 259.90775 101.167314 259.132187L101.227785 259.132187C101.524091 259.132187 101.714573 259.435141 102.13182 260.098612 102.63675 260.895382 103.480315 262.2405 105.040456 263.818894 107.187162 265.991078 109.989975 269.132717 109.563657 271.362462 109.288516 272.789378 107.462304 274.582869 104.916491 275.924958 104.856021 275.955254 104.786479 275.973431 104.695774 275.973431"/><path fill="#756B5E" d="M72.5919319,265.860808 L72.5919319,265.860808 C70.2517197,265.860808 65.9492365,265.506351 65.7194482,264.791378 C64.3437421,260.534866 66.4934719,257.223573 66.9379308,256.593427 C67.3128486,256.075375 67.6091545,255.808775 67.811731,255.808775 C84.0480871,255.684564 93.2093831,247.410875 104.807644,236.943794 L106.325456,235.577469 C108.64148,233.490112 111.955269,230.605985 114.228964,228.661017 C111.456387,228.191437 108.822892,227.967251 106.198468,227.967251 C101.221738,227.967251 97.0885721,228.797346 93.0884419,229.600176 C92.4655947,229.730446 91.839724,229.854658 91.2168768,229.97281 C87.9393703,230.618103 84.2234519,231.342164 80.6466159,231.720858 C80.6466159,231.720858 80.6466159,231.720858 80.6435924,231.720858 C80.4228747,231.720858 80.3230982,231.566351 80.1174981,231.257337 C79.8665451,230.878644 79.4462745,230.257587 78.6692273,229.548673 C77.8135683,228.77311 76.9911681,227.661267 77.0697799,227.046269 C77.0909446,226.873585 77.1816505,226.737255 77.3267799,226.661516 C78.9171567,225.813244 82.3911927,224.886203 84.6286049,224.540834 C84.7041932,224.531746 84.8765344,224.495391 85.1456285,224.440859 C96.9404191,222.008134 113.098163,220.602425 130.643708,220.460037 L130.719296,220.460037 C131.426802,220.460037 131.859167,220.523657 131.964991,220.826612 C132.064767,221.123507 131.786602,221.417373 131.333073,221.77183 C124.070554,227.458287 117.975117,234.123287 112.079234,240.564101 C102.975385,250.513129 92.8344653,260.613634 77.8710153,265.239751 C76.2141209,265.754773 74.0855558,265.860808 72.5919319,265.860808"/><path fill="#756B5E" d="M49.5586804,322.067968 L49.5586804,322.067968 C49.4437862,322.067968 49.3409862,322.025554 49.2653979,321.943756 C49.0628214,321.731688 49.0839861,321.316641 49.117245,320.695584 C49.4800686,313.309551 49.1384097,305.44788 48.8058214,297.837662 C47.8896918,276.873206 46.9463504,255.193777 59.6058706,239.767331 C59.6996,239.649179 59.8961294,239.588588 60.1833648,239.588588 C60.6459649,239.588588 63.1101418,239.791567 66.1790248,243.748154 C66.7716367,244.517658 67.2947074,245.075095 67.6786957,245.478024 C68.2592134,246.093022 68.5766841,246.429302 68.2985193,246.744375 C55.4575874,261.222573 57.4410231,283.098922 59.0283763,300.670287 L59.0465175,300.861148 C59.1644352,302.157794 59.249094,303.103012 59.3670117,303.321139 C59.4637647,303.275696 59.6482,303.11513 59.8205412,302.966683 C60.1742942,302.654639 60.6641061,302.227473 61.3716121,301.818485 C62.4238005,301.209546 66.1790248,297.334757 70.932014,292.435982 C77.2995682,285.880045 85.2181933,277.71239 91.6794769,272.11076 C92.0785828,271.759333 93.3031125,272.268297 94.1950539,273.104451 C95.068854,273.931517 96.0061483,276.285474 96.3205954,277.600297 C96.3417602,277.676036 96.375019,277.748745 96.4113013,277.818424 C96.6380661,278.269826 96.5987602,278.587929 95.770313,279.269577 C85.9589581,287.303932 77.2390976,295.126218 68.3227076,303.878576 C66.3241542,305.841721 64.3467656,307.859399 62.2484358,309.995228 C58.4780939,313.836692 54.5747166,317.814486 50.5110923,321.492354 C50.0605863,321.901343 49.7854451,322.067968 49.5586804,322.067968"/><path fill="#756B5E" d="M112.263669 263.873426 112.263669 263.873426C112.163893 263.873426 112.064116 263.849189 111.955269 263.806776 111.108681 263.470496 110.361869 262.304121 109.424574 260.837821 109.267351 260.589398 109.10408 260.328857 108.931739 260.068316 108.605198 259.565412 108.28168 259.156423 108.021657 258.820143 107.522774 258.186968 107.220421 257.802216 107.534868 257.523498 120.77793 245.70827 130.459273 236.074315 136.31585 228.897321 139.487533 225.010414 143.291134 221.441609 146.97077 217.997016 148.618594 216.461036 150.169665 215.003825 151.642124 213.549643 152.488712 212.707429 153.226454 212.022752 153.822089 211.471375 154.505407 210.8382 155.155466 210.241379 155.294548 209.992956 155.255242 209.980838 155.191748 209.974779 155.094995 209.974779 154.535642 209.974779 153.32623 210.186847 151.493971 210.507979L150.614124 210.665515C143.194381 211.962161 134.138909 212.228761 125.379742 212.489302 123.335836 212.546863 121.307047 212.613513 119.317565 212.683193 93.6205832 213.631441 67.0467779 214.606954 51.433269 235.110919 51.291163 235.298751 51.1097512 235.501731 50.8648453 235.501731 50.7015747 235.501731 50.5473747 235.410844 50.4113158 235.235131 48.4036919 232.672135 47.3303387 229.400226 47.457327 226.258587 47.4966329 225.340635 47.6538564 224.76805 48.4702095 224.004605 66.2848484 207.163361 92.1632417 204.839699 117.467164 204.839699 123.042554 204.839699 128.717719 204.957851 134.20845 205.069945 139.306122 205.16992 145.084087 205.288072 150.544583 205.288072 156.987725 205.288072 162.197267 205.127506 166.941186 204.797286 167.443092 204.760931 167.857315 204.945733 168.005468 205.294131 168.262468 205.897011 167.757539 206.845258 166.469515 208.193406 164.467938 210.286822 162.436126 212.389327 160.416408 214.482743 157.516843 217.481993 154.523548 220.578189 151.699571 223.577439L150.323865 225.03768C138.513957 237.589088 126.295872 250.558572 113.167705 263.340226 112.862328 263.64318 112.596257 263.873426 112.263669 263.873426M45.4678443 257.102391 45.4678443 257.102391C45.3831854 257.102391 45.2622442 257.075125 45.1473501 256.956973 39.5326548 251.258398 36.2007248 247.429052 34.6859362 243.536086 29.7968882 230.978619 29.1952058 218.139405 32.9927594 207.393606 33.1076536 207.075504 33.4160536 206.70287 33.9240067 206.70287 34.5045244 206.70287 35.1485363 207.199715 35.8439482 208.181288 36.932419 209.714238 37.7578427 210.620072 38.3595252 211.280513 40.3127256 213.419372 40.3127256 213.419372 40.5425139 223.659237L40.5636786 224.631721C40.7329963 231.951103 40.9053375 239.512849 47.6719976 245.10842L47.8141035 245.223543C48.2646095 245.596177 48.4339272 245.738565 48.3220566 246.250559 48.1255271 247.126097 47.8080565 249.198306 47.70828 250.452538 47.4905858 253.127627 46.453515 257.102391 45.4678443 257.102391M52.1286809 195.517787C52.1256573 195.517787 52.1256573 195.517787 52.1256573 195.517787 51.8353984 195.517787 51.542116 195.342074 51.2579042 194.996705 50.281304 193.815183 49.3863391 190.555391 49.4407627 190.270614 50.5413276 184.672014 54.3358578 180.224641 58.3541291 175.519756L58.6625292 175.153181C59.0193057 174.738134 59.4577176 174.135254 59.8779883 173.553581 60.954365 172.081222 61.359518 171.566199 61.6860592 171.566199 61.7737416 171.566199 61.8584004 171.602554 61.9158475 171.672233 62.0065534 171.784327 62.5598594 172.144843 63.0950242 172.49627 63.8569538 172.999174 64.8033186 173.620231 65.4775658 174.174638 65.7889894 174.435179 66.2455425 174.738134 66.6809308 175.035029 67.7331192 175.731825 68.1624605 176.052956 68.1987428 176.346822 68.2713076 176.922436 58.6806704 190.443298 52.6336104 195.329955 52.4733633 195.454167 52.3040456 195.517787 52.1286809 195.517787M47.4422093 150.507828C46.9463504 150.507828 46.2176797 149.720146 46.2086091 148.311407 46.2086091 148.141752 46.0816208 147.590375 45.9546326 147.057175 45.5101737 145.15765 45.3983031 144.436618 45.6734443 144.176077 50.8436806 139.253066 59.0918705 136.311377 67.7361428 136.311377 70.9531787 136.311377 74.1278852 136.726424 77.1695564 137.532284 77.5172623 137.6262 77.8498506 137.707997 77.9859095 137.992775 78.085686 138.189695 78.0675448 138.426 77.9345095 138.738043 75.4642855 144.591125 75.1558854 144.627479 72.2079436 144.057925 71.0045787 143.82162 69.3597784 143.500489 66.8653661 143.500489 66.2425189 143.500489 65.5894365 143.524725 64.9212363 143.567139 59.8386824 143.870093 52.2798574 145.845357 47.7233976 150.395734 47.6538564 150.465414 47.55408 150.507828 47.4422093 150.507828M80.86431 160.69013 80.86431 160.69013C80.3805452 160.69013 79.7939804 160.49018 79.0169332 160.063015 77.281427 159.111737 73.550391 156.436648 73.8980969 155.585346 76.0841091 150.253346 80.0509805 145.62117 83.8908636 141.140472 84.7011696 140.195254 85.5507816 139.128854 86.3762053 138.098809 88.320335 135.666083 89.1518058 134.666333 89.5690529 134.578477 90.0377001 134.478502 90.4972767 134.430029 90.9296414 134.430029 95.0990893 134.430029 96.4113013 139.053116 96.7831955 141.040497 96.8527367 141.413132 96.9676309 141.667613 97.0583368 141.873623 97.3062662 142.425 97.3365015 142.715836 96.5927131 143.200563 90.0951472 147.429809 86.152464 153.685821 82.3367692 159.738853 81.9164985 160.396265 81.462969 160.69013 80.86431 160.69013"/><path fill="#756B5E" d="M105.959609 180.045898C105.956586 180.045898 105.956586 180.045898 105.956586 180.045898 94.0015479 180.045898 78.9262273 178.958291 68.3680605 170.448297 61.7767651 165.134474 60.2256942 162.265494 58.4327409 158.939053 57.7463996 157.666644 57.0328465 156.348792 55.9897287 154.785546 55.7508698 154.431089 55.4908462 152.364939 56.0864816 151.849916 57.8008232 150.371498 59.7177412 149.886771 62.6596359 149.514137L62.7896477 149.495959C63.1675889 149.447487 63.4124948 149.414162 63.5878596 149.414162 64.0081303 149.414162 64.1200009 149.614112 64.2439656 149.923125 66.3392719 155.230889 70.4270845 160.253876 75.7394267 164.068074 82.4546868 168.89717 90.8419591 171.342013 100.665408 171.342013 105.200703 171.342013 108.84708 170.808813 110.800281 170.524036 111.166128 170.472533 111.474528 170.43012 111.71641 170.399824 111.791998 170.387706 111.864563 170.378617 111.92201 170.372558 111.915963 170.366499 111.909916 170.36044 111.903869 170.354381 111.631751 170.105958 111.184269 169.690911 110.776092 168.96382 110.144175 167.815622 104.638326 160.584096 95.5102894 156.112487 94.914654 155.821651 93.6145361 154.219021 93.3545125 153.331364 93.2789243 153.070823 93.2910184 152.867844 93.3817243 152.713337 94.0559715 151.62573 94.5004304 150.589625 94.863254 149.7565 95.4528423 148.384116 95.8428777 147.484341 96.6985367 147.484341 96.9706544 147.484341 97.2639368 147.578257 97.6025722 147.781237 108.94081 154.543182 120.590471 165.064794 129.567331 176.643718 129.769908 176.910318 129.96039 177.146622 130.129708 177.352632 130.77372 178.158491 131.103285 178.555361 130.924896 178.934054 130.704179 179.406663 129.827355 179.424841 126.921743 179.467254 125.298107 179.488461 123.066742 179.518757 120.076471 179.649027 115.293246 179.855036 110.615845 180.045898 105.959609 180.045898M110.268139 128.177047 110.268139 128.177047C110.038351 128.177047 109.327822 128.177047 106.186374 125.099028 105.956586 124.874842 105.726797 124.656715 105.503056 124.441617 104.202938 123.205562 103.081209 122.148251 103.383562 121.260594 104.181773 118.95208 104.943703 118.224989 108.048868 115.501428 108.856151 114.798573 110.198598 113.774587 111.274975 112.95055 112.048999 112.359789 112.850234 111.75085 112.953034 111.632698 113.025599 111.5509 113.158634 111.441837 113.391446 111.441837 114.510152 111.441837 117.122482 113.95333 118.507259 115.743791 119.417341 116.934403 119.8104 117.785705 119.683412 118.294669 119.175459 120.224489 115.586529 123.447926 112.968152 125.810971 111.897822 126.768308 110.978669 127.601433 110.670269 127.992244 110.606775 128.077072 110.48281 128.177047 110.268139 128.177047M49.6433392 215.921777 49.6433392 215.921777C49.4407627 215.921777 49.2895862 215.861186 49.1958568 215.749093 49.0870097 215.624882 48.7302331 215.152273 48.0862212 214.30097 46.2872209 211.916718 42.5471143 206.957352 37.1561603 200.152992 28.2730291 188.949732 30.3925236 172.181197 31.2542297 167.306658 31.3147003 166.991585 31.4870415 166.016072 32.1129122 166.016072 32.5241123 166.016072 32.9564771 166.449297 33.4735007 167.36422 34.1628656 168.585126 34.8340892 169.666674 35.4811246 170.714897 36.4214425 172.235729 37.3073368 173.671734 38.1720663 175.371309 38.2204428 175.471284 38.3141723 175.613672 38.4351135 175.804534 39.0186547 176.713397 40.2341138 178.612923 40.0315373 180.6306 39.1728548 189.176948 47.9108565 204.742754 57.0328465 210.907879 57.1628583 210.998765 57.2323995 211.129036 57.2263525 211.277484 57.2263525 211.483493 57.2142583 212.028811 54.0969989 213.998016 53.0629516 214.649368 50.6199394 215.921777 49.6433392 215.921777"/><path fill="#756B5E" d="M117.793706,195.993426 C101.191502,195.993426 82.2642044,195.217862 67.7391663,189.458696 C67.1526015,189.22845 66.6144131,188.973969 66.4511425,188.440769 C66.2878719,187.922716 66.5176602,187.253187 67.1828368,186.259496 C69.4353666,182.902759 70.9289904,181.381927 71.6546376,181.678823 C84.1901931,186.886612 97.886784,187.583407 109.630175,187.583407 C114.117093,187.583407 118.667506,187.465255 123.072789,187.353162 C127.251307,187.241069 132.185708,187.128975 137.068709,187.128975 C142.861793,187.128975 147.626876,187.289541 151.633053,187.601584 L152.479642,187.671264 C153.701148,187.774269 154.584019,187.843948 155.149419,187.843948 C155.666442,187.843948 155.769242,187.780328 155.78436,187.768209 C155.742031,187.613703 154.949866,186.904789 154.109324,186.156491 C153.607418,185.714178 153.005736,185.174918 152.319395,184.541743 C145.576923,178.270584 138.329521,171.393515 132.51225,165.867624 C128.992861,162.532094 125.455331,159.145062 121.902683,155.755001 C101.079632,135.856945 79.5490745,115.2833 58.091082,99.956829 C57.7191878,99.690229 57.434976,99.4721017 57.2082113,99.3024471 C57.0630818,99.1842948 56.9179524,99.0691721 56.8211994,99.0055516 C56.8091053,99.1176448 56.8030582,99.296388 56.7909641,99.4660426 C56.7849171,99.7205244 56.7697994,100.041656 56.7365406,100.438527 C56.3525523,105.258534 57.2112348,110.490559 58.0427056,115.543841 C58.8137057,120.212371 59.7812353,127.010672 59.3186352,132.124545 C59.2853764,132.536563 59.2249058,133.28789 58.0124703,133.678702 C56.2376581,134.057395 54.9707991,134.614831 53.7492929,135.15409 C53.1597046,135.411602 52.5489515,135.684261 51.8928455,135.926624 C51.7023631,135.999333 51.542116,136.056895 51.387916,136.056895 C50.8134453,136.056895 50.8073982,135.317686 50.8013512,134.963229 L50.7771629,132.145751 C50.6652923,120.524414 50.3417746,85.154469 50.229904,81.8219688 C50.1694334,80.2587232 50.1966452,79.4619527 50.4899276,79.152939 C50.583657,79.0590231 50.6955276,79.0105504 50.8255394,79.0105504 C51.1974336,79.0105504 51.6660808,79.4377163 52.5549986,80.5737959 C58.290635,87.9052964 65.8676012,95.3125355 75.0833207,102.601622 C82.775181,108.691009 87.0232407,112.674862 91.9395005,117.282801 C94.4732186,119.654935 97.3455721,122.348201 100.985902,125.607992 C124.814342,146.908727 149.450065,168.939583 170.161245,191.333985 C170.735716,191.958071 171.237622,192.606394 171.022951,193.188067 C170.856657,193.63038 170.288234,193.903039 169.287445,194.015133 C164.455844,194.548333 160.54642,194.596805 155.748078,194.199935 C154.571925,194.09996 153.144818,194.051487 151.506065,194.051487 C145.304805,194.051487 136.984051,194.742224 130.296002,195.29966 C125.914907,195.666235 122.132471,195.987367 120.230671,195.993426 C119.429435,195.993426 118.613082,195.993426 117.793706,195.993426"/><path fill="#756B5E" d="M47.7657271 177.210243C47.6296682 177.210243 47.508727 177.158741 47.4240682 177.064825 29.4219705 157.257655 30.1083118 131.400483 30.8369825 104.034597L30.8762884 102.471352C31.1605003 91.6922285 30.7130178 82.4369665 30.3169354 74.2784001 29.6910647 61.3543584 29.1498528 50.1904827 31.8528886 38.5085547 31.9708063 37.999591 32.1340769 37.4966864 32.6964535 37.4966864 33.0864889 37.4966864 33.6397949 37.7632865 34.5196421 38.2480138 40.1222432 41.3139139 102.621632 102.822779 107.967233 108.145691 108.042821 108.224459 108.085151 108.324434 108.079674 108.436527 108.06701 108.763718 107.701162 109.099998 106.936209 109.775586 106.419186 110.230018 105.832621 110.745041 105.366997 111.302477 104.535526 112.296168 103.688938 112.799073 102.854444 112.799073 102.319279 112.799073 101.799232 112.590034 101.300349 112.184075 83.6187459 97.5422811 51.8505161 69.5553384 41.6249376 56.5555581 39.2212313 57.6674013 39.1033136 69.3614475 39.0277253 77.1473798 39.0035371 79.5619277 38.9793489 81.6553437 38.9007371 83.1186143L38.7616547 85.5664872C37.125925 114.892489 35.4357717 145.212182 52.2919515 169.106208 53.099234 170.242288 52.443128 171.29354 51.8081867 172.311468 51.6267749 172.602304 51.4362925 172.908288 51.2820925 173.217302 50.3417746 175.062295 48.6032449 177.210243 47.7657271 177.210243M336.960325 368.735089C313.364697 368.735089 286.978351 367.783812 262.666146 366.053941 261.632099 365.984262 261.489993 365.908523 261.24811 365.357146 261.208804 365.26323 261.109028 365.042073 261.214851 364.817886 261.338816 364.563405 261.668381 364.39375 262.442405 364.19683 264.338158 363.699984 266.593711 362.067059 268.075241 360.706793 269.073006 359.788841 270.101006 358.843622 271.129006 358.243772 271.464618 358.062 271.996759 358.007468 272.540995 358.107443 281.859514 359.764604 292.831905 360.570463 306.07799 360.570463 317.113874 360.570463 328.742371 360.013027 338.088102 359.558595 340.893938 359.422266 344.319597 359.352586 347.633386 359.279877 350.188269 359.225345 352.604069 359.173843 354.705423 359.098104 355.385717 359.073868 355.473399 358.943597 355.485494 358.913302 355.591317 358.65882 354.678211 357.65907 354.010011 356.931979 315.650486 315.027304 274.152536 277.294313 230.223669 237.346724 223.865185 231.560292 217.476466 225.755682 211.07263 219.908659 210.416524 219.311839 210.020441 218.821052 209.757394 218.493861 209.572959 218.269675 209.400618 218.057607 209.322006 218.057607 209.191994 218.057607 208.847312 218.381768 208.375641 218.845289 208.115617 219.093711 207.795123 219.399696 207.392994 219.766271 195.168862 231.021033 136.500286 284.601577 136.073968 284.937856 135.937909 285.043891 135.762544 285.104481 135.556944 285.104481 134.262874 285.104481 131.810791 282.820204 130.565096 281.475086 129.815261 280.666197 129.500814 280.090583 129.537096 279.617974 129.573378 279.169602 129.902943 278.91512 130.223437 278.672756 130.292979 278.618224 130.365543 278.557633 130.435085 278.500072 140.857192 269.753774 149.522629 261.010505 158.699043 251.749184 162.070279 248.347004 165.559433 244.820613 169.187669 241.257867 178.875059 231.720858 190.911732 221.056857 201.530369 211.656177 203.432169 209.974779 205.303735 208.311558 207.126923 206.696811 207.855594 206.045458 208.445182 205.772799 209.101288 205.772799 210.40443 205.772799 211.982712 206.845258 215.580713 210.186847L216.191466 210.750343C249.698226 241.84257 273.910654 264.30968 302.132283 292.848 314.764591 305.623594 327.115712 316.932888 340.204573 328.896564 346.369551 334.540607 352.746175 340.375512 359.337471 346.540638 359.839377 347.007188 360.595259 347.707013 361.526507 348.570433 367.162366 353.79034 377.641921 363.500034 378.675969 365.132959 378.830169 365.3935 378.990416 365.611627 379.132522 365.805518 379.498369 366.320541 379.758392 366.693175 379.592098 367.038543 379.401616 367.438443 378.742486 367.586891 376.638109 367.705043 364.776801 368.39275 351.43094 368.735089 336.960325 368.735089"/><path fill="#756B5E" d="M240.703224 339.599948C240.1348 339.599948 239.81733 339.463619 239.756859 339.19096 239.66313 338.742587 238.459765 337.345967 237.489211 336.228064 235.977446 334.476987 235.605552 333.98923 235.659976 333.695364L235.678117 333.583271 235.796035 333.492384C236.681929 332.977362 240.461341 329.214666 242.547577 327.066718 242.989013 326.612286 243.424401 326.160884 243.856766 325.712511 247.660366 321.758954 250.949967 318.338597 255.96298 316.536018 256.062756 316.499663 256.153462 316.463308 256.235098 316.433013 256.761192 316.227004 257.157274 316.163383 257.771051 316.693554 260.132428 318.771822 261.266251 320.689525 261.130193 322.392129 260.876216 325.570123 257.009121 328.133118 252.355909 330.9203 248.573473 333.192459 243.86886 336.019026 242.021483 339.239433 241.815883 339.599948 240.718342 339.599948 240.703224 339.599948M277.342361 310.161853 277.342361 310.161853C276.196443 310.161853 271.854654 306.51731 271.050395 302.263828 270.992948 301.936637 271.328559 301.748805 272.069324 301.327698 272.912889 300.84903 274.324878 300.04923 275.987819 298.570812 278.074055 296.7137 281.109679 294.238562 283.389421 294.238562 283.558738 294.238562 283.737126 294.256739 283.891327 294.287034 285.372856 294.535457 287.298845 296.310771 288.680598 298.688964 289.091798 299.391819 286.642739 303.215105 282.827044 305.98411 281.297138 307.095953 278.086149 309.534738 277.659831 310.025524 277.611455 310.086115 277.511678 310.161853 277.342361 310.161853"/><path fill="#756B5E" d="M274.004383,336.303803 L274.004383,336.303803 C270.454759,336.303803 267.555194,334.464869 267.555194,333.871078 C267.425182,318.499163 258.732533,309.819515 247.723861,298.837412 L246.272566,297.3802 C244.086554,295.192868 241.047906,292.039111 238.970741,289.860868 C237.383388,298.346625 238.689553,304.214855 239.953388,309.895253 C240.089447,310.495103 240.219459,311.085865 240.349471,311.682685 C241.132565,315.275727 241.806812,318.505222 242.18173,321.701393 C242.208942,321.913461 242.033577,322.019495 241.688895,322.234593 C241.298859,322.470897 240.642753,322.867768 239.895941,323.606977 C239.140059,324.358304 238.033447,325.12175 237.377341,325.12175 C237.084058,325.12175 236.948,324.961184 236.893576,324.867268 C236.004658,323.358554 235.022011,320.062409 234.662211,317.938697 C234.650117,317.865988 234.607787,317.699363 234.55034,317.441852 C231.998481,306.244651 230.516951,290.930298 230.374845,274.316269 C230.365775,273.634622 230.426245,273.31046 230.59254,273.143835 C230.668128,273.068097 230.764881,273.025683 230.870704,273.025683 C231.094446,273.025683 231.342375,273.204426 231.720316,273.634622 C237.703882,280.529868 244.709401,286.304182 251.485132,291.890664 C261.95864,300.524869 272.580301,310.137617 277.448184,324.328009 C278.627361,327.778661 277.962184,334.261889 277.28189,335.570653 C277.23049,335.682746 277.133737,335.831194 276.98256,335.873607 C276.012007,336.155355 275.008195,336.303803 274.004383,336.303803"/><path fill="#756B5E" d="M294.45554,352.363424 C279.957714,352.363424 263.415981,351.091015 250.683896,341.678217 C250.553885,341.581271 250.484343,341.38738 250.487272,341.090485 C250.493414,340.648171 250.729249,338.303303 254.871486,335.416146 C255.678768,334.849621 256.259286,334.352775 256.688627,333.98923 C257.214721,333.540857 257.474745,333.316671 257.734768,333.316671 C257.831521,333.316671 257.919204,333.346966 257.988745,333.398469 C266.415323,340.139208 277.977302,343.274787 294.364834,343.274787 C301.476177,343.274787 308.521002,342.699174 314.740403,342.196269 L314.921815,342.181121 C316.315662,342.05994 317.274121,341.984201 317.528098,341.878167 C317.467627,341.784251 317.30738,341.617626 317.165274,341.475237 C316.835709,341.138958 316.388227,340.669378 315.955862,339.996819 C315.31185,339.003128 311.242179,335.440382 306.08706,330.932418 C299.184341,324.900593 290.597516,317.393379 284.704656,311.267638 C284.290432,310.837442 284.928397,309.646831 285.756845,308.85006 C286.618551,308.026024 289.091798,307.132308 290.473551,306.838442 C290.55821,306.814206 290.633798,306.78391 290.71241,306.747556 C290.824281,306.702112 290.954293,306.635462 291.117563,306.635462 C291.425963,306.635462 291.73134,306.847531 292.199987,307.356494 C300.677965,316.678406 308.90499,324.949066 318.087451,333.374232 C320.155545,335.273757 322.281087,337.155105 324.53664,339.145517 C328.570029,342.717351 332.751571,346.410367 336.618666,350.263949 C337.051031,350.694145 337.320125,351.042542 337.196161,351.333379 C337.08429,351.612097 336.718443,351.636333 336.388878,351.636333 C336.216537,351.636333 336.010937,351.624215 335.787196,351.612097 C333.531642,351.518181 331.19143,351.463649 328.600265,351.463649 C323.049064,351.463649 317.313427,351.687836 311.768273,351.905963 C306.07799,352.133179 300.200247,352.363424 294.45554,352.363424"/><path fill="#756B5E" d="M237.011494 353.202608C236.830082 353.202608 236.642623 353.196549 236.458188 353.19049 235.499729 353.151106 234.90107 353.002658 234.093787 352.233154 212.808136 331.932168 213.500524 300.930828 214.171748 270.944385 214.410607 260.477305 214.655513 249.664857 213.89056 239.90972 213.878466 239.712799 213.887259 239.340165 214.132442 239.073565 214.652489 238.513099 215.789337 238.916029 217.434137 240.327797 219.68969 242.269736 221.948267 244.23894 224.200797 246.205115 227.302939 248.90747 230.513928 251.700711 233.610022 254.333386L235.294129 255.760302C248.446484 266.921149 262.052369 278.457658 275.446607 290.866677 275.863854 291.257489 276.148066 291.569532 275.936419 292.045171 275.58569 292.848 274.370231 293.547825 272.834277 294.435482 272.56216 294.589989 272.293065 294.747525 272.002807 294.91415 271.476712 295.220134 271.047371 295.535207 270.690595 295.777571 270.182641 296.132028 269.883312 296.353184 269.635383 296.353184 269.523512 296.353184 269.426759 296.310771 269.357218 296.238062 260.83691 287.625063 248.68232 275.897692 239.245882 268.957003 235.161093 265.948664 231.420987 262.346535 227.795774 258.865587 226.172139 257.299312 224.636185 255.826952 223.100232 254.424273 222.217361 253.618414 221.497761 252.921618 220.920267 252.358123 220.224855 251.682534 219.571773 251.0433 219.32989 250.943325 219.239184 251.282634 219.511302 252.667136 219.877149 254.548484L220.037396 255.369491C221.401008 262.404096 221.68522 270.992858 221.960361 279.293813 222.023856 281.238781 222.090373 283.162543 222.162938 285.04995 223.154656 309.398408 224.179632 334.583021 245.752519 349.39144 245.964166 349.539888 246.160696 349.706513 246.166743 349.948876 246.166743 350.115501 246.06999 350.263949 245.882531 350.39119 244.394954 351.439413 241.25653 353.202608 237.011494 353.202608M232.388516 369.256171 232.388516 369.256171C226.834292 369.256171 221.527997 368.46243 216.617784 366.902214 216.321478 366.805268 215.955631 366.541698 215.904231 366.114532 215.825619 365.52983 216.34869 364.878477 217.455302 364.172593 219.069867 363.139518 220.019255 362.357895 220.717691 361.782282 222.964173 359.937288 222.964173 359.937288 233.740034 359.719161L234.743846 359.700984C242.456871 359.534359 250.417826 359.367734 256.301615 352.954186L256.413486 352.829974C256.724909 352.487636 256.879109 352.314952 257.19658 352.314952 257.275192 352.314952 257.362874 352.321011 257.480792 352.345247 258.42111 352.536108 260.604098 352.836033 261.904216 352.92389 264.501429 353.114752 268.5711 354.044822 268.867406 354.932479 268.918806 355.096074 268.873453 355.262699 268.737394 355.386911 262.596605 360.831004 258.726486 363.86055 254.623556 365.296555 247.128225 367.9262 239.651035 369.256171 232.388516 369.256171M198.648945 351.309142 198.594521 351.309142C192.722826 350.266979 188.042402 346.670908 183.092883 342.865799L182.708895 342.568903C182.264436 342.226565 181.626471 341.805458 181.009671 341.405558 179.379988 340.333099 178.935529 340.002878 178.929482 339.699924 178.923435 339.599948 178.968788 339.512092 179.0474 339.451501 179.165318 339.363644 179.555353 338.830444 179.930271 338.315421 180.453341 337.600448 181.1034 336.706732 181.677871 336.079616 181.956036 335.776662 182.279554 335.340407 182.590977 334.92536 183.325695 333.937728 183.65526 333.534798 183.954589 333.498444 184.592554 333.498444 198.706392 342.468928 203.897793 348.249301 204.10944 348.488635 204.16084 348.770383 204.039899 349.036983 203.489617 350.279097 198.975486 351.309142 198.648945 351.309142M150.629241 355.026395 150.629241 355.026395C150.381312 355.026395 150.227112 354.983981 150.130359 354.890065 142.855746 348.000879 139.977345 335.706982 143.130887 325.003598 143.27904 324.500693 143.487664 323.937198 144.379605 324.267418 150.481088 326.594109 150.577841 326.860709 149.967088 329.717571 149.667759 331.096014 149.220276 333.192459 149.453088 336.618876 149.77963 341.432824 151.850748 348.59467 156.630949 352.908743 156.754913 353.014777 156.785149 353.19049 156.718631 353.375293 156.540243 353.853961 155.757148 354.362924 154.460054 354.368984 154.275619 354.368984 153.719289 354.487136 153.129701 354.611347 152.225665 354.808268 151.194642 355.026395 150.629241 355.026395M162.266808 328.145236 162.266808 328.145236C162.215408 328.145236 162.167032 328.139177 162.124703 328.121 156.519078 326.060909 151.648171 322.298213 146.934488 318.659729 145.936723 317.890224 144.799876 317.084365 143.699311 316.305772 140.953945 314.369892 139.995486 313.648861 140.019675 313.197458 140.216204 309.492324 141.936593 306.623344 144.86337 305.102512 145.108276 304.978301 145.401558 304.91468 145.73717 304.91468 146.982864 304.91468 148.494629 305.790219 149.066076 306.58396 153.507642 312.724849 160.09289 316.469368 166.457421 320.095734 167.010727 320.410806 167.316104 320.747086 167.424951 321.162134 167.561009 321.689275 167.370527 322.340627 166.802103 323.267668 165.662233 325.149016 163.122467 328.145236 162.266808 328.145236"/><path fill="#756B5E" d="M159.609126 345.350026C158.886502 345.350026 158.408784 345.237933 158.197137 345.013747 156.636996 343.380821 156.126019 341.557035 155.73296 338.766823L155.717842 338.642612C155.581784 337.670128 155.551548 337.470178 156.162301 337.252051 161.749785 335.25558 167.037939 331.38685 171.053187 326.351745 177.7624 317.932638 180.045165 306.759674 177.837988 293.132777 177.783564 292.78438 177.738211 292.493543 177.704953 292.263298 177.692859 292.1815 177.683788 292.11485 177.671694 292.057289 177.6596 292.066377 177.641459 292.078496 177.632388 292.096673 177.372364 292.351155 176.933953 292.778321 176.165976 293.163073 174.962611 293.759893 167.355409 298.979801 162.64475 307.635212 162.312161 308.256269 160.268255 309.725599 159.406549 309.725599 159.288631 309.725599 159.191878 309.701363 159.10722 309.65289 157.961302 309.013656 156.86376 308.595578 155.986937 308.25021 154.698913 307.747306 153.843254 307.417085 153.640677 306.771792 153.534854 306.441571 153.62556 306.062878 153.915819 305.623594 161.030185 294.877796 172.096304 283.832072 184.28113 275.316019 184.559295 275.128188 184.807225 274.949444 185.024919 274.788879 185.70219 274.285974 186.116413 273.992108 186.452025 273.992108 187.153484 273.992108 187.168602 274.885824 187.213955 277.842661 187.241166 279.387729 187.274425 281.499322 187.413508 284.328918 188.196602 300.482455 189.164131 320.58349 177.726117 333.374232 172.13561 339.618126 169.118127 341.084426 165.622927 342.79006 164.280479 343.441412 162.898726 344.113972 161.253926 345.101603 160.996926 345.262169 160.216855 345.350026 159.609126 345.350026M126.292848 300.25221C126.292848 300.25221 126.295872 300.25221 126.292848 300.25221 126.187025 300.25221 126.084225 300.240091 125.981425 300.209796 123.774248 299.522089 122.534601 298.240591 120.0674 295.683655L119.432459 295.038362C118.658435 294.232502 117.715094 293.069157 116.959211 292.133027 116.493588 291.554384 116.009823 290.954534 115.897952 290.866677 115.749799 290.754584 115.607693 290.536457 115.749799 290.109291 116.284964 288.506661 120.9926 284.428893 122.658565 284.428893 122.734154 284.428893 122.806718 284.441011 122.870212 284.453129 124.871789 284.925738 128.221861 288.409716 130.667896 290.948475 131.717061 292.039111 132.618073 292.972211 133.041367 293.269107 133.159285 293.350905 133.222779 293.475116 133.234873 293.629623 133.253014 293.871987 133.29232 294.51728 129.996673 297.558944 129.760837 297.777071 129.525002 297.998228 129.298237 298.210296 128.140225 299.310021 127.14246 300.25221 126.292848 300.25221M184.846531 369.374323 184.846531 369.374323C181.375518 369.374323 177.877294 369.095605 174.448611 368.547257 173.910422 368.46243 173.178728 368.292775 173.106164 367.808048 173.036622 367.386941 173.484105 366.941598 174.518152 366.417487 175.803152 365.766134 176.946047 365.1269 178.049635 364.511902 179.649082 363.618186 181.157824 362.775973 182.938683 361.967084 183.04753 361.918611 183.198707 361.824695 183.401283 361.712602 184.399048 361.130929 186.352248 360.000909 188.456625 360.203888 188.885967 360.243273 189.339496 360.26145 189.802096 360.26145 199.138757 360.26145 214.238266 352.351306 220.288349 344.292715 220.373008 344.174562 220.50302 344.113972 220.645126 344.113972 220.841655 344.113972 221.425197 344.113972 223.502362 347.079897 223.52655 347.119281 226.205398 351.097074 225.346715 351.760545 225.228797 351.848402 224.835738 352.108942 224.125209 352.575492 221.827326 354.090265 216.442419 357.628775 208.980347 362.966834 201.566651 368.26248 191.764367 369.374323 184.846531 369.374323"/><path fill="#756B5E" d="M83.3889576,350.588111 C82.318628,350.588111 81.7169455,350.512372 81.5929808,350.115501 C81.4690161,349.718631 81.8771926,349.267229 83.2166164,348.328069 C90.938712,342.883976 98.7363959,335.700923 106.394997,326.972802 C112.789763,319.683715 116.977352,315.660479 121.824071,311.004067 C124.327554,308.595578 127.163625,305.872017 130.592308,302.412276 C153.01783,279.814895 176.208305,256.44195 199.734392,236.831701 C200.269557,236.383328 200.834957,235.97434 201.364075,235.97434 C201.995993,235.97434 202.386028,236.540865 202.52511,237.670885 C203.078416,242.163701 203.13284,246.002136 202.715593,250.519188 C202.183452,256.323798 203.166099,266.927208 203.879652,274.670726 C204.26364,278.809086 204.593205,282.38092 204.599252,284.18047 C204.671817,301.773042 203.885699,319.977581 197.732815,333.968023 C197.49698,334.498194 197.170439,335.228314 196.320827,335.228314 C195.831015,335.228314 195.220262,334.995039 194.388791,334.492135 C189.082496,331.280816 189.45439,330.487075 189.572308,330.220475 C196.508286,315.178781 196.01545,298.061848 195.537733,281.51144 C195.265615,272.098642 195.105368,262.316239 195.80078,254.412155 L195.879392,253.594177 C196.027545,251.961252 196.139415,250.676725 195.985215,250.494952 C195.80985,250.513129 195.056991,251.276575 194.261803,252.079404 C193.787109,252.555043 193.227756,253.127627 192.553509,253.778979 C186.400625,259.738096 180.017953,265.812335 172.909634,272.565192 C169.405363,275.897692 165.849691,279.24534 162.28495,282.605106 C141.350028,302.345626 119.695506,322.758704 103.577067,343.108162 C103.301926,343.462619 103.063067,343.735278 102.881656,343.950376 C102.775832,344.074587 102.666985,344.198799 102.59442,344.292715 C102.715361,344.298774 102.890726,344.304833 103.069114,344.310892 C103.335185,344.32301 103.676844,344.332099 104.091068,344.362394 C104.925562,344.429044 105.811456,344.45631 106.718515,344.45631 C111.011928,344.45631 115.541176,343.78981 119.925294,343.138458 L119.994835,343.12634 C123.816577,342.562844 129.467555,341.805458 134.383815,341.805458 C135.478333,341.805458 136.506333,341.847871 137.431533,341.92664 C137.851804,341.947846 138.634898,342.002378 139.052145,343.156635 C139.448227,344.835003 140.031769,346.031674 140.594145,347.179872 C140.869287,347.746397 141.159545,348.328069 141.416546,348.955185 C141.525393,349.221785 141.631216,349.482326 141.483063,349.712572 C141.343981,349.92464 141.035581,350.012497 140.415757,350.012497 L136.914509,350.042792 C123.529342,350.154886 87.9696056,350.45784 84.5167343,350.563874 C84.0934401,350.575992 83.7185224,350.588111 83.3889576,350.588111"/><path fill="#756B5E" d="M58.8348704 369.565184 58.8348704 369.565184C51.3576807 369.565184 45.0505971 369.201639 38.9793489 368.416987 38.4653488 368.350337 38.141831 368.162505 37.987631 367.841373 37.7517957 367.350587 37.9694898 366.605318 38.68909 365.420766 41.9393847 360.079677 106.624786 300.855089 112.23041 295.795748 112.299952 295.729098 112.393681 295.695773 112.502528 295.695773 112.832093 295.695773 113.210034 296.068407 113.905446 296.777321 114.386187 297.262048 114.921352 297.819485 115.513964 298.261798 116.487541 298.997978 117.013635 299.749305 117.083176 300.494573 117.1376 301.061098 116.913858 301.618535 116.430094 302.145676 99.906502 320.138147 70.9078257 349.509592 57.936882 358.713352 59.1825764 360.973393 71.9116377 361.091545 79.5853569 361.161225 82.1341927 361.179402 84.3353225 361.203638 85.8742993 361.279377L88.4654645 361.409648C97.5965251 361.867109 107.032962 362.339718 116.248682 362.339718 134.151003 362.339718 157.16309 360.776473 176.350411 348.576492 176.719282 348.340188 177.097223 348.228094 177.502376 348.228094 178.255235 348.228094 178.953671 348.618906 179.691412 349.036983 180.002835 349.209667 180.32333 349.385381 180.643824 349.533829 182.542601 350.403308 184.740707 351.99079 184.843507 352.811797 184.864672 352.978422 184.810248 353.12687 184.689307 353.226845 167.539845 367.274848 145.513429 369.207698 124.267083 369.207698 118.851941 369.207698 113.267481 369.077428 107.864433 368.947157L106.240797 368.907773C103.023761 368.835064 99.8520785 368.79568 96.5503837 368.79568 88.5682645 368.79568 81.6413573 369.013807 74.9442383 369.225875 69.3083784 369.398559 63.9899891 369.565184 58.8348704 369.565184M292.856093 275.540206 292.856093 275.540206C292.345116 275.540206 292.051834 275.191808 291.79181 274.885824 291.73134 274.819174 291.673893 274.755554 291.613422 274.688904 279.573726 261.761832 267.739629 250.543425 252.549414 236.63781 238.033447 223.341134 225.691397 211.541054 215.867948 201.576879 215.290454 200.992176 214.758313 200.328706 214.770205 199.471344 214.782501 198.180758 215.961678 196.56601 219.121267 193.50011L219.846914 192.797255C252.591744 160.993085 276.247843 138.017011 306.319872 111.223709 321.588699 97.6089311 335.291337 84.3001371 349.798234 70.2127498 354.203517 65.9289723 358.705553 61.563397 363.376907 57.0524036 363.890907 56.5555581 364.674001 55.7921126 365.644554 54.8590125 371.10505 49.5451895 381.282252 39.6446343 382.99357 38.6751797 383.25964 38.5206729 383.495476 38.3722251 383.695029 38.2419547 384.139487 37.9602069 384.450911 37.7572274 384.747217 37.7572274 385.391229 37.7572274 385.551476 38.6024706 385.675441 40.620148 387.782841 73.6149296 385.557523 117.170707 383.933887 148.968818 383.885511 149.968568 383.761546 150.110957 383.19917 150.341203 383.111487 150.377557 382.99357 150.413912 382.875652 150.413912 382.431193 150.413912 382.213499 149.944332 381.995805 149.193005 381.481805 147.402543 379.758392 145.254595 378.322216 143.845857 377.354686 142.897609 376.362968 141.922095 375.725003 140.940522 375.522427 140.619391 375.471027 140.122545 375.57685 139.577227 379.407663 120.176017 378.18011 97.3847447 377.10071 77.2776503 376.958604 74.6267978 376.886039 71.1367613 376.816498 67.7618474 376.756027 65.1291723 376.704627 62.6388857 376.622992 60.6151492L376.610898 60.330372C376.610898 60.2182788 376.604851 60.1122447 376.598804 60.0183288 376.54438 60.069831 376.480886 60.136481 376.420415 60.1940424 376.160392 60.4485242 375.770356 60.8272174 375.204956 61.296797 329.183806 99.2721517 287.425833 140.567888 243.230895 184.281202 238.816541 188.649807 234.39614 193.021442 229.960622 197.399135 229.736881 197.620292 229.531281 197.820242 229.346845 197.998985 228.654457 198.659426 228.23721 199.062356 228.234186 199.389547 228.231163 199.76824 228.790516 200.310528 229.806422 201.30119L230.235763 201.719267C241.710059 212.949793 297.987023 268.866117 298.358918 269.293283 298.494976 269.44779 298.552424 269.64168 298.534282 269.884044 298.434506 271.144335 296.079176 273.422553 294.70347 274.564692 293.911305 275.234222 293.321717 275.540206 292.856093 275.540206"/><path fill="#756B5E" d="M349.870798 174.662395 349.870798 174.662395C349.764975 174.662395 349.665198 174.613922 349.616822 174.532125 349.139104 173.786856 345.770892 170.684602 342.844115 168.115547 342.363373 167.69747 341.885656 167.282422 341.420032 166.873433 337.244537 163.253126 333.637466 160.129665 331.729618 155.355101 331.693336 155.264214 331.657054 155.182417 331.623795 155.103648 331.387959 154.573478 331.285159 154.240228 331.90196 153.607053 332.225477 153.276832 332.509689 152.973878 332.769713 152.698189 334.263336 151.128884 335.043407 150.310907 336.600525 150.42603 340.255973 150.680512 344.307503 154.897639 346.877504 158.75728 349.263069 162.347292 352.238222 166.821931 355.645741 168.585126 355.981352 168.754781 356.072058 169.727265 356.005541 170.175638 355.948094 170.608863 355.751564 170.733074 355.597364 170.76034 355.125693 170.851227 353.650211 171.993365 352.468011 172.914347 350.87461 174.15949 350.188269 174.662395 349.870798 174.662395M317.839521 140.761779C317.404133 140.761779 316.463815 140.058925 312.778132 136.323495 310.446991 133.969538 307.831637 130.982406 308.248884 128.785985 308.527049 127.35301 310.353261 125.562549 312.902097 124.21743 312.962568 124.187135 313.032109 124.178046 313.122815 124.178046 313.96638 124.178046 317.627874 126.141192 320.563722 129.785735 321.773134 131.28839 324.306852 134.293699 324.826899 134.696629 324.99017 134.82084 325.038546 135.057145 324.956911 135.384336 324.636417 136.668863 322.157122 140.034688 317.906039 140.75572L317.839521 140.761779"/><path fill="#756B5E" d="M287.090221,179.685382 C286.388762,179.685382 285.956398,179.624791 285.850574,179.318807 C285.750797,179.021911 286.028962,178.725016 286.482492,178.370559 C293.751058,172.684102 299.846494,166.022131 305.739354,159.578287 C314.84018,149.638348 324.984123,139.537843 339.944549,134.905668 C341.604467,134.390645 343.736056,134.281581 345.22968,134.281581 C347.566868,134.281581 351.872375,134.645127 352.102163,135.35404 C353.471823,139.613581 351.322093,142.927904 350.880657,143.548961 C350.502716,144.070043 350.20641,144.336643 350.006857,144.342702 C333.773525,144.466914 324.618276,152.725455 313.026062,163.186476 L311.493132,164.570978 C309.301073,166.549272 306.017519,169.400074 303.589625,171.484402 C306.365225,171.950952 308.992673,172.181197 311.62012,172.181197 C316.58778,172.181197 320.720946,171.354131 324.715029,170.548272 C325.346946,170.418002 325.972817,170.29379 326.604735,170.169579 C329.888289,169.530345 333.613277,168.797195 337.168949,168.43062 C337.174996,168.43062 337.174996,168.43062 337.174996,168.43062 C337.39269,168.43062 337.492466,168.585126 337.698067,168.885051 C337.94902,169.257686 338.372314,169.884802 339.152384,170.596745 C340.008043,171.378368 340.830444,172.484152 340.745785,173.099149 C340.727644,173.271834 340.633914,173.408163 340.485761,173.483902 C338.898408,174.329145 335.430419,175.259215 333.18696,175.601554 C333.111372,175.613672 332.932983,175.656086 332.651795,175.713647 C320.820722,178.140313 304.678095,179.549052 287.177904,179.685382 L287.090221,179.685382"/><path fill="#756B5E" d="M357.635223,160.55986 C357.175647,160.55986 354.71147,160.35991 351.63654,156.400294 C351.040904,155.62473 350.51481,155.070323 350.136869,154.667394 C349.556351,154.058455 349.238881,153.719146 349.517045,153.401044 C362.367048,138.922845 360.380589,117.046496 358.787188,99.4721017 L358.769047,99.296388 C358.651129,97.9936834 358.569494,97.036347 358.451577,96.8212492 C358.357847,96.869722 358.167365,97.0302879 357.995023,97.1757061 C357.64127,97.4907788 357.157506,97.9179448 356.443953,98.3239039 C355.391764,98.9389016 351.63654,102.810661 346.883551,107.709436 C340.522044,114.271432 332.597371,122.429999 326.136088,128.034658 C325.718841,128.395174 324.512452,127.874092 323.620511,127.034908 C322.758805,126.22299 321.815463,123.862974 321.494969,122.542092 C321.470781,122.466353 321.443569,122.396674 321.407287,122.323964 C321.183546,121.875592 321.222852,121.55446 322.051299,120.875842 C331.883818,112.81725 340.603679,104.997993 349.492857,96.2668424 C351.488387,94.3067263 353.465776,92.295108 355.558058,90.1653375 C359.331424,86.3117554 363.240848,82.3369915 367.307496,78.6500345 C367.98779,78.0410958 368.323402,77.9653571 368.556214,78.2016617 C368.74972,78.4137299 368.731579,78.8106004 368.701343,79.4255981 L368.695296,79.5013368 C368.335496,86.9055463 368.680179,94.7338923 369.009743,102.301697 C369.93192,123.272212 370.875261,144.951641 358.221788,160.378087 C358.118988,160.49624 357.925482,160.55986 357.635223,160.55986"/><path fill="#756B5E" d="M250.759485 195.348133 250.759485 195.348133C250.293861 195.348133 249.949179 195.169389 249.816143 194.851287 249.559143 194.245378 250.064073 193.30016 251.34605 191.952012 253.329485 189.873744 255.343156 187.792446 257.35078 185.720237 260.268487 182.702809 263.279922 179.585407 266.115994 176.571009L268.093382 174.471534C279.721879 162.129165 291.737387 149.365689 304.653907 136.802163 305.062084 136.414381 305.403743 136.15384 305.863319 136.341672 306.712931 136.674922 307.459743 137.838268 308.397037 139.313656 308.557284 139.562079 308.717531 139.816561 308.886849 140.083161 309.21339 140.580007 309.536908 140.992025 309.796932 141.325275 310.298838 141.95845 310.601191 142.343202 310.280696 142.62495 297.028564 154.449266 287.350245 164.080192 281.505761 171.254156 278.334078 175.135004 274.530478 178.69775 270.850842 182.139314 269.203018 183.684382 267.648923 185.141593 266.173441 186.601834 265.329876 187.434959 264.592134 188.122666 263.993476 188.674044 263.316205 189.307219 262.660099 189.910098 262.52404 190.158521 262.566369 190.16458 262.629864 190.170639 262.726616 190.170639 263.28597 190.170639 264.498405 189.955541 266.327641 189.637439L267.201441 189.482932C274.61816 188.186287 283.670609 187.916657 292.423728 187.656116 294.479729 187.595525 296.514564 187.537964 298.501024 187.459196 324.201029 186.520037 350.774834 185.535434 366.382296 165.034499 366.530449 164.843638 366.705813 164.649747 366.95979 164.649747 367.120037 164.649747 367.26819 164.731544 367.410296 164.904228 369.41792 167.476313 370.491273 170.751252 370.361261 173.886831 370.321955 174.801754 370.161708 175.371309 369.351402 176.146872 351.530716 192.985087 325.634182 195.305719 300.306071 195.305719 294.766964 195.305719 289.109939 195.193626 283.643397 195.081533 277.475396 194.957321 272.368654 194.857346 267.231676 194.857346 260.900404 194.857346 255.55178 195.014883 250.877402 195.348133 250.835073 195.348133 250.801814 195.348133 250.759485 195.348133M383.891558 193.442548 383.891558 193.442548C383.31104 193.442548 382.670052 192.945703 381.977663 191.96716 380.886169 190.43118 380.057722 189.525346 379.456039 188.861875 377.508886 186.726046 377.508886 186.726046 377.270027 176.452856L377.25491 175.519756C377.082568 168.200374 376.910227 160.632569 370.149614 155.040028L370.007508 154.927935C369.553979 154.555301 369.381637 154.418971 369.499555 153.89183 369.696085 152.998114 370.013555 150.922875 370.107285 149.68985 370.321955 147.075352 371.377167 143.039998 372.344697 143.039998 372.429356 143.039998 372.55332 143.070293 372.671238 143.188445 378.415945 149.029409 381.611816 152.707278 383.129628 156.609333 388.018676 169.169829 388.620359 182.002984 384.822805 192.754842 384.69884 193.10021 384.369276 193.442548 383.891558 193.442548M356.129505 228.582248 356.129505 228.582248C356.041823 228.582248 355.960188 228.542864 355.899717 228.476214 355.805988 228.364121 355.243611 227.991487 354.702399 227.630971 353.946517 227.140185 353.012246 226.519128 352.344046 225.97381 352.020528 225.70721 351.563975 225.401225 351.116493 225.10433 350.058257 224.389357 349.653104 224.092462 349.616822 223.795566 349.541234 223.150273 359.685177 208.405474 365.689907 203.561231 366.116225 203.221922 366.612084 203.334015 367.071661 203.90357 368.054308 205.109329 368.934155 208.341854 368.873684 208.626631 367.758002 214.307029 363.340625 220.087402 359.159083 224.992237 358.799282 225.413344 358.360871 226.010164 357.937576 226.588807 356.8612 228.067226 356.456047 228.582248 356.129505 228.582248M350.088493 263.831012C346.871457 263.831012 343.693727 263.422023 340.652055 262.613135 340.286208 262.519219 339.965714 262.434391 339.832679 262.149614 339.729879 261.955723 339.754067 261.719419 339.884079 261.398287 342.36035 255.554293 342.659679 255.523998 345.613668 256.090523 346.810986 256.323798 348.464857 256.6419 350.956246 256.6419 351.582116 256.6419 352.232175 256.623723 352.894328 256.584339 357.979906 256.275325 365.538731 254.300061 370.095191 249.749684 370.485226 249.358872 371.600909 250.104141 371.606956 251.837041 371.606956 252.003666 371.736967 252.548984 371.860932 253.073095 372.311438 254.984739 372.423309 255.7088 372.145144 255.966311 366.971884 260.889323 358.729741 263.831012 350.088493 263.831012M327.454347 266.327358 327.436206 266.327358C323.880534 266.157703 321.984781 262.849439 320.312769 259.931987 319.647592 258.789848 320.448828 257.323548 321.60684 256.566161 327.877641 252.476275 331.257948 247.117009 335.179466 240.903411L335.484843 240.412624C335.899066 239.755213 336.352596 239.458317 336.954278 239.458317 337.441066 239.458317 338.024608 239.661297 338.804679 240.079374 340.534138 241.033681 344.265174 243.714829 343.917468 244.560072 341.737503 249.886013 337.770631 254.518189 333.930748 259.001916 333.205101 259.850189 332.355489 260.901441 331.533089 261.925428 329.011465 265.054948 327.932065 266.327358 327.454347 266.327358"/><path fill="#756B5E" d="M321.123075 252.661077C320.850957 252.661077 320.557675 252.564132 320.21904 252.358123 308.868708 245.596177 297.219047 235.074565 288.25428 223.495641 288.04868 223.2351 287.858198 223.004855 287.691904 222.789757 287.044868 221.992987 286.718327 221.583998 286.890668 221.211364 287.11441 220.732696 287.994257 220.720577 290.905916 220.678164 292.529552 220.653927 294.760917 220.617573 297.745141 220.490332 302.528365 220.281293 307.211813 220.093461 311.858979 220.093461 323.81704 220.093461 338.898408 221.187127 349.450528 229.70318 356.041823 235.007915 357.58987 237.879924 359.382824 241.203336 360.075212 242.475745 360.788765 243.796627 361.834907 245.359872 362.064695 245.714329 362.312624 247.789568 361.729083 248.292472 360.008694 249.77392 358.097823 250.258647 355.155929 250.631282L355.038011 250.649459C354.647976 250.700961 354.406093 250.725197 354.227705 250.725197 353.780223 250.725197 353.680446 250.482834 353.577646 250.228352 351.476293 244.920588 347.397551 239.897601 342.082185 236.074315 335.360878 231.245219 326.976629 228.797346 317.150157 228.797346 312.620909 228.797346 308.974531 229.327517 307.015284 229.612294 306.649437 229.672885 306.341037 229.712269 306.099154 229.742564 306.023566 229.754683 305.957049 229.766801 305.899601 229.77286 305.905649 229.778919 305.905649 229.778919 305.911696 229.784978 306.183813 230.033401 306.637343 230.448448 307.045519 231.181599 307.67139 232.323737 313.162121 239.552233 322.311322 244.032931 322.900911 244.323768 324.201029 245.926397 324.461052 246.814054 324.53664 247.074595 324.524546 247.274545 324.436864 247.429052 323.762617 248.516659 323.315134 249.558822 322.955334 250.394977 322.362722 251.761302 321.972687 252.661077 321.123075 252.661077M304.176189 288.700552 304.176189 288.700552C303.057483 288.700552 300.436083 286.186029 299.05433 284.386479 298.147271 283.211015 297.751188 282.353654 297.884223 281.84772 298.386129 279.926988 301.748295 276.924708 304.203401 274.731317 305.21326 273.831542 306.08706 273.049919 306.39546 272.653049 306.458954 272.571251 306.579896 272.477335 306.791543 272.477335 307.027378 272.477335 307.734884 272.477335 310.876332 275.552324 311.109144 275.77954 311.344979 275.997667 311.56872 276.215795 312.868838 277.44579 313.984521 278.506131 313.676121 279.393788 312.883956 281.696243 312.058532 282.486954 309.016861 285.143866 308.173296 285.880045 306.957837 286.764672 305.97519 287.482675 305.349319 287.931048 304.711354 288.400627 304.617625 288.51272 304.542036 288.594518 304.412025 288.700552 304.176189 288.700552M385.702652 234.126317 385.702652 234.126317C385.291452 234.126317 384.865135 233.702181 384.345087 232.778169 383.655723 231.560292 382.987523 230.475714 382.337464 229.430521 381.394122 227.90363 380.508228 226.470655 379.649545 224.76805 379.598145 224.671105 379.504416 224.531746 379.392545 224.346944 378.799933 223.43505 377.584474 221.535525 377.784027 219.511789 378.65178 210.919997 370.454991 196.020692 361.532554 189.985837 361.408589 189.904039 361.339048 189.773769 361.339048 189.625321 361.345095 189.419312 361.357189 188.873994 364.480495 186.904789 365.508496 186.253437 367.945461 184.981027 368.922061 184.981027 369.127661 184.981027 369.281861 185.038589 369.37559 185.150682 369.481414 185.271864 369.753532 185.650557 370.261485 186.335234 371.724873 188.340794 375.150533 193.03356 380.665451 199.986367 389.548583 211.186597 387.423041 227.961192 386.561335 232.83876 386.506911 233.156862 386.33457 234.126317 385.702652 234.126317"/><path fill="#756B5E" d="M366.990025,321.131838 C366.618131,321.131838 366.152507,320.707702 365.260566,319.571622 C359.52493,312.246181 351.947963,304.829853 342.738291,297.540766 C335.052478,291.463498 330.813489,287.488734 325.900252,282.883824 C323.366534,280.499572 320.48511,277.800247 316.829662,274.534397 C292.989128,253.215484 268.335265,231.16948 247.654319,208.814463 C247.076825,208.187347 246.577943,207.535995 246.792613,206.963411 C246.961931,206.512008 247.530355,206.239349 248.534167,206.127256 C253.359721,205.597086 257.269145,205.548613 262.07051,205.945483 C263.249687,206.045458 264.679817,206.093931 266.327641,206.093931 C272.534948,206.093931 280.861749,205.400165 287.552821,204.839699 C291.921822,204.476154 295.695188,204.16411 297.584894,204.151992 C298.383106,204.151992 299.178294,204.151992 299.982553,204.151992 C316.605921,204.151992 335.560431,204.927556 350.076398,210.683693 C350.662963,210.913938 351.198128,211.16842 351.364422,211.70162 C351.530716,212.222702 351.303952,212.898291 350.638775,213.885922 C348.383222,217.245689 346.895645,218.76652 346.160927,218.466595 C333.631419,213.264866 319.946922,212.565041 308.215625,212.565041 C303.713589,212.565041 299.154106,212.683193 294.745799,212.795286 C290.591469,212.90435 285.690327,213.016443 280.81942,213.016443 C274.996101,213.016443 270.20683,212.861936 266.185535,212.540804 L265.329876,212.477184 C264.114417,212.377209 263.228522,212.298441 262.666146,212.298441 C262.152146,212.298441 262.046322,212.365091 262.034228,212.377209 C262.076558,212.531716 262.865699,213.23457 263.70624,213.985897 C264.208146,214.431241 264.809829,214.96747 265.49617,215.600645 C271.927218,221.583998 278.569914,227.885453 284.988868,233.97484 L285.306339,234.274765 C288.804563,237.595147 292.323952,240.954913 295.849388,244.329827 C316.693604,264.252119 338.248349,284.85 359.727506,300.18556 C360.0994,300.446101 360.380589,300.670287 360.607353,300.84903 C360.752483,300.961123 360.900636,301.079276 361.003436,301.145926 C361.012506,301.027773 361.018553,300.84903 361.024601,300.676346 C361.036695,300.427923 361.048789,300.103762 361.079024,299.706891 C361.469059,294.91415 360.6134,289.71242 359.791,284.689434 L359.772859,284.601577 C359.004882,279.926988 358.037353,273.122628 358.496929,268.020874 C358.533212,267.599767 358.599729,266.854498 359.803094,266.463687 C361.568836,266.091053 362.826624,265.536646 364.042083,265.003446 C364.640742,264.736846 365.260566,264.464187 365.925743,264.221823 C366.116225,264.152144 366.276472,264.085494 366.433696,264.085494 C367.002119,264.085494 367.014213,264.824703 367.014213,265.17916 C367.059566,270.226383 367.461696,314.58802 367.591708,318.323449 C367.652178,319.883665 367.621943,320.683465 367.325637,320.98945 C367.231908,321.086395 367.120037,321.131838 366.990025,321.131838"/><path fill="#756B5E" d="M385.125158,362.645702 L385.125158,362.645702 C384.729076,362.645702 384.181817,362.382132 383.295923,361.900434 C377.702392,358.837563 315.193933,297.328698 309.857402,291.996698 C309.772743,291.920959 309.736461,291.817955 309.736461,291.705861 C309.748555,291.3817 310.114402,291.04542 310.882379,290.375891 C311.396379,289.918429 311.982944,289.400377 312.454614,288.842941 C313.812179,287.216075 315.242309,286.907061 316.518239,287.967402 C335.502984,303.684685 366.494166,331.262639 376.196674,343.586831 C378.60038,342.474987 378.718298,330.783971 378.793886,323.001068 C378.818075,320.58349 378.842263,318.493104 378.917851,317.032863 L379.05391,314.594079 C380.68964,285.262018 382.38584,254.939295 365.52059,231.03921 C364.716331,229.90313 365.378484,228.854907 366.010402,227.83698 C366.191813,227.543114 366.382296,227.24016 366.536496,226.931146 C367.47379,225.080094 369.215343,222.932146 370.049838,222.932146 C370.185896,222.932146 370.309861,222.986678 370.397544,223.080593 C388.402665,242.890792 387.7133,268.747965 386.984629,296.125969 L386.945323,297.671037 C386.661111,308.459249 387.108594,317.705422 387.504676,325.867018 C388.1245,338.794089 388.662688,349.954936 385.962676,361.627775 C385.874994,362.030704 385.732888,362.645702 385.125158,362.645702"/><path fill="#FFFFFE" d="M81.2029454,94.8278082 L96.5564308,94.8278082 C104.248291,94.8278082 106.990633,90.0835397 106.990633,85.6391963 C106.990633,81.1887937 104.248291,76.4384661 96.5564308,76.4384661 L81.2029454,76.4384661 L81.2029454,94.8278082 Z M118.954741,122.945021 L105.303503,122.945021 L93.5661596,105.170677 L81.2029454,105.170677 L81.2029454,122.945021 L70.3424256,122.945021 L70.3424256,105.170677 L63.6241419,105.170677 L63.6241419,94.8278082 L70.3424256,94.8278082 L70.3424256,66.1016564 L97.3667368,66.1016564 C109.612033,66.1016564 117.845106,73.9512092 117.845106,85.6391963 C117.845106,93.4675422 112.74441,100.141631 104.819738,102.725834 L118.954741,122.945021 L118.954741,122.945021 Z"/><polygon fill="#FFFFFE" points="203.84 123.148 214.695 123.148 214.695 66.302 203.84 66.302"/><polyline fill="#FFFFFE" points="335.427 122.945 324.579 122.945 324.579 76.438 308.092 76.438 308.092 66.102 351.915 66.102 351.915 76.438 335.427 76.438 335.427 122.945"/><path fill="#FFFFFE" d="M95.2411952 238.288913C80.8612865 238.288913 70.0128609 227.803655 70.0128609 213.9041L70.0128609 180.276143 80.8673336 180.276143 80.8673336 211.659206C80.8673336 221.250748 86.7783347 227.949073 95.2411952 227.949073 103.701032 227.949073 109.612033 221.250748 109.612033 211.659206L109.612033 180.276143 120.466506 180.276143 120.466506 213.9041C120.466506 227.803655 109.61808 238.288913 95.2411952 238.288913M201.448734 216.724607 217.162019 216.724607 209.349218 197.371869 201.448734 216.724607ZM237.017541 237.122538 225.322527 237.122538 225.262056 236.97409 221.023067 226.525187 197.49698 226.525187 193.19752 237.122538 181.575071 237.122538 181.717177 236.795347 202.098793 190.073694 189.318331 190.073694 189.318331 180.276143 212.998618 180.276143 213.056066 180.418532 237.017541 237.122538 237.017541 237.122538Z"/><polyline fill="#FFFFFE" points="351.31 237.123 307.931 237.123 307.931 180.276 318.786 180.276 318.786 226.78 340.453 226.78 340.453 213.316 351.31 213.316 351.31 237.123"/><path fill="#FFFFFE" d="M92.3446535 345.955935C83.2528988 345.955935 74.40605 342.138708 68.0747781 335.476737L67.9115075 335.304053 76.1415562 327.896814 76.2957562 328.060409C80.8038394 332.865269 86.8176406 335.619126 92.7951595 335.619126 100.937526 335.528239 106.001939 332.3866 106.001939 327.412086 106.001939 322.267918 99.5618196 321.404497 92.1027711 320.404747 82.1311691 319.068718 69.7165549 317.399438 69.7165549 303.978551 69.7165549 294.174941 79.8302628 286.78285 93.2396184 286.78285 102.555114 286.78285 110.144175 289.706361 115.804223 295.471587L115.976564 295.641241 107.930951 302.866708 107.776751 302.712201C103.029809 298.037612 98.5247488 296.044171 92.7074771 296.044171 84.692099 296.044171 81.109216 299.761423 81.109216 303.439292 81.109216 308.601637 87.5130525 309.410526 94.9267481 310.340597 104.937656 311.600888 117.3946 313.161104 117.3946 326.872827 117.3946 339.269728 104.48715 345.955935 92.3446535 345.955935M225.422303 344.368453C220.363938 344.368453 216.251937 340.245242 216.251937 335.179841 216.251937 330.108382 220.363938 325.98517 225.422303 325.98517 230.480669 325.98517 234.595693 330.108382 234.595693 335.179841 234.595693 340.245242 230.480669 344.368453 225.422303 344.368453M284.568597 344.368453C279.507208 344.368453 275.392184 340.245242 275.392184 335.179841 275.392184 330.108382 279.507208 325.98517 284.568597 325.98517 289.629986 325.98517 293.745011 330.108382 293.745011 335.179841 293.745011 340.245242 289.629986 344.368453 284.568597 344.368453M343.705821 344.368453C338.650478 344.368453 334.535454 340.245242 334.535454 335.179841 334.535454 330.108382 338.650478 325.98517 343.705821 325.98517 348.76721 325.98517 352.882234 330.108382 352.882234 335.179841 352.882234 340.245242 348.76721 344.368453 343.705821 344.368453"/></g></svg>